<svg width="369" height="370" viewBox="0 0 369 370" fill="none" xmlns="http://www.w3.org/2000/svg">
<mask id="path-1-inside-1_38_35" fill="white">
<path d="M184.5 8.38C184.5 4.30414 187.806 0.98459 191.878 1.14755C225.783 2.50421 258.71 13.1895 287.003 32.0939C317.344 52.367 340.991 81.1819 354.956 114.895C368.92 148.608 372.574 185.705 365.455 221.494C358.336 257.284 340.764 290.158 314.961 315.961C289.158 341.764 256.284 359.336 220.494 366.455C184.705 373.574 147.608 369.92 113.895 355.956C80.1819 341.991 51.367 318.344 31.0939 288.003C12.1895 259.71 1.50421 226.783 0.14755 192.878C-0.0154105 188.806 3.30414 185.5 7.38 185.5C11.4559 185.5 14.7433 188.806 14.9204 192.878C16.2682 223.862 26.084 253.938 43.3663 279.802C62.0176 307.716 88.5274 329.472 119.543 342.319C150.559 355.167 184.688 358.528 217.615 351.978C250.541 345.429 280.786 329.263 304.524 305.524C328.263 281.786 344.429 251.541 350.978 218.615C357.528 185.688 354.167 151.559 341.319 120.543C328.472 89.5274 306.716 63.0176 278.802 44.3663C252.938 27.084 222.862 17.2682 191.878 15.9204C187.806 15.7433 184.5 12.4559 184.5 8.38Z"/>
</mask>
<path d="M184.5 8.38C184.5 4.30414 187.806 0.98459 191.878 1.14755C225.783 2.50421 258.71 13.1895 287.003 32.0939C317.344 52.367 340.991 81.1819 354.956 114.895C368.92 148.608 372.574 185.705 365.455 221.494C358.336 257.284 340.764 290.158 314.961 315.961C289.158 341.764 256.284 359.336 220.494 366.455C184.705 373.574 147.608 369.92 113.895 355.956C80.1819 341.991 51.367 318.344 31.0939 288.003C12.1895 259.71 1.50421 226.783 0.14755 192.878C-0.0154105 188.806 3.30414 185.5 7.38 185.5C11.4559 185.5 14.7433 188.806 14.9204 192.878C16.2682 223.862 26.084 253.938 43.3663 279.802C62.0176 307.716 88.5274 329.472 119.543 342.319C150.559 355.167 184.688 358.528 217.615 351.978C250.541 345.429 280.786 329.263 304.524 305.524C328.263 281.786 344.429 251.541 350.978 218.615C357.528 185.688 354.167 151.559 341.319 120.543C328.472 89.5274 306.716 63.0176 278.802 44.3663C252.938 27.084 222.862 17.2682 191.878 15.9204C187.806 15.7433 184.5 12.4559 184.5 8.38Z" fill="#FEEE99" stroke="black" stroke-width="2.2638" mask="url(#path-1-inside-1_38_35)"/>
<mask id="path-2-inside-2_38_35" fill="white">
<path d="M184.5 39.081C184.5 34.928 187.869 31.5422 192.017 31.745C216.557 32.9446 240.493 40.0038 261.802 52.3781C285.283 66.013 304.739 85.616 318.198 109.198C331.656 132.78 338.638 159.503 338.434 186.655C338.231 213.806 330.849 240.421 317.038 263.799C303.228 287.176 283.479 306.485 259.797 319.766C236.114 333.048 209.34 339.829 182.191 339.421C155.042 339.014 128.483 331.433 105.21 317.448C84.0879 304.755 66.354 287.197 53.4609 266.283C51.2815 262.748 52.6213 258.163 56.2587 256.159C59.896 254.155 64.4521 255.492 66.6501 259.015C78.2504 277.611 94.1084 293.231 112.956 304.557C133.956 317.176 157.92 324.016 182.417 324.384C206.914 324.751 231.072 318.633 252.441 306.649C273.81 294.665 291.629 277.243 304.09 256.149C316.551 235.055 323.212 211.041 323.396 186.542C323.579 162.043 317.28 137.931 305.136 116.653C292.993 95.3743 275.437 77.6865 254.25 65.3836C235.235 54.3416 213.902 47.99 192.016 46.8041C187.869 46.5794 184.5 43.234 184.5 39.081Z"/>
</mask>
<path d="M184.5 39.081C184.5 34.928 187.869 31.5422 192.017 31.745C216.557 32.9446 240.493 40.0038 261.802 52.3781C285.283 66.013 304.739 85.616 318.198 109.198C331.656 132.78 338.638 159.503 338.434 186.655C338.231 213.806 330.849 240.421 317.038 263.799C303.228 287.176 283.479 306.485 259.797 319.766C236.114 333.048 209.34 339.829 182.191 339.421C155.042 339.014 128.483 331.433 105.21 317.448C84.0879 304.755 66.354 287.197 53.4609 266.283C51.2815 262.748 52.6213 258.163 56.2587 256.159C59.896 254.155 64.4521 255.492 66.6501 259.015C78.2504 277.611 94.1084 293.231 112.956 304.557C133.956 317.176 157.92 324.016 182.417 324.384C206.914 324.751 231.072 318.633 252.441 306.649C273.81 294.665 291.629 277.243 304.09 256.149C316.551 235.055 323.212 211.041 323.396 186.542C323.579 162.043 317.28 137.931 305.136 116.653C292.993 95.3743 275.437 77.6865 254.25 65.3836C235.235 54.3416 213.902 47.99 192.016 46.8041C187.869 46.5794 184.5 43.234 184.5 39.081Z" fill="#D5D3FF" stroke="black" stroke-width="2.2638" mask="url(#path-2-inside-2_38_35)"/>
<mask id="path-3-inside-3_38_35" fill="white">
<path d="M184.5 73.7619C184.5 69.8342 187.687 66.6281 191.608 66.863C206.734 67.7691 221.57 71.5613 235.308 78.0581C251.193 85.5698 265.214 96.5102 276.363 110.092C287.512 123.673 295.51 139.557 299.783 156.601C304.055 173.645 304.495 191.424 301.072 208.659C297.648 225.893 290.445 242.154 279.982 256.27C269.519 270.387 256.056 282.007 240.563 290.296C225.069 298.585 207.931 303.335 190.381 304.204C175.203 304.956 160.044 302.789 145.72 297.845C142.007 296.563 140.288 292.382 141.789 288.753C143.29 285.124 147.443 283.423 151.166 284.674C163.538 288.833 176.6 290.646 189.677 289.998C205.127 289.233 220.214 285.051 233.854 277.755C247.493 270.458 259.345 260.228 268.555 247.801C277.766 235.374 284.107 221.059 287.121 205.887C290.135 190.715 289.748 175.064 285.986 160.06C282.225 145.056 275.184 131.072 265.37 119.116C255.555 107.16 243.212 97.5288 229.228 90.9161C217.391 85.3184 204.628 82.0015 191.606 81.115C187.688 80.8483 184.5 77.6895 184.5 73.7619Z"/>
</mask>
<path d="M184.5 73.7619C184.5 69.8342 187.687 66.6281 191.608 66.863C206.734 67.7691 221.57 71.5613 235.308 78.0581C251.193 85.5698 265.214 96.5102 276.363 110.092C287.512 123.673 295.51 139.557 299.783 156.601C304.055 173.645 304.495 191.424 301.072 208.659C297.648 225.893 290.445 242.154 279.982 256.27C269.519 270.387 256.056 282.007 240.563 290.296C225.069 298.585 207.931 303.335 190.381 304.204C175.203 304.956 160.044 302.789 145.72 297.845C142.007 296.563 140.288 292.382 141.789 288.753C143.29 285.124 147.443 283.423 151.166 284.674C163.538 288.833 176.6 290.646 189.677 289.998C205.127 289.233 220.214 285.051 233.854 277.755C247.493 270.458 259.345 260.228 268.555 247.801C277.766 235.374 284.107 221.059 287.121 205.887C290.135 190.715 289.748 175.064 285.986 160.06C282.225 145.056 275.184 131.072 265.37 119.116C255.555 107.16 243.212 97.5288 229.228 90.9161C217.391 85.3184 204.628 82.0015 191.606 81.115C187.688 80.8483 184.5 77.6895 184.5 73.7619Z" fill="#A48FF8" stroke="black" stroke-width="2.2638" mask="url(#path-3-inside-3_38_35)"/>
<path d="M114.974 3.12158H117.164L120.097 10.2796H120.213L123.145 3.12158H125.335V13H123.618V6.21341H123.526L120.796 12.9711H119.513L116.783 6.19894H116.691V13H114.974V3.12158ZM129.339 13.1495C128.869 13.1495 128.446 13.0659 128.07 12.8987C127.697 12.7283 127.401 12.4775 127.182 12.1463C126.967 11.815 126.859 11.4067 126.859 10.9211C126.859 10.5031 126.936 10.1574 127.091 9.88405C127.245 9.61073 127.456 9.39206 127.723 9.22807C127.99 9.06407 128.29 8.94027 128.625 8.85666C128.962 8.76984 129.311 8.70713 129.671 8.66855C130.105 8.62353 130.458 8.58333 130.728 8.54796C130.998 8.50937 131.194 8.45149 131.316 8.37432C131.442 8.29392 131.504 8.17012 131.504 8.00291V7.97397C131.504 7.6106 131.397 7.32924 131.181 7.12987C130.966 6.9305 130.655 6.83081 130.25 6.83081C129.823 6.83081 129.483 6.92407 129.232 7.11057C128.985 7.29708 128.818 7.51735 128.731 7.77138L127.1 7.53986C127.229 7.08967 127.441 6.71344 127.737 6.41117C128.033 6.10569 128.395 5.87738 128.822 5.72624C129.25 5.57189 129.723 5.49472 130.241 5.49472C130.597 5.49472 130.953 5.53652 131.307 5.62013C131.66 5.70373 131.983 5.84201 132.276 6.03494C132.569 6.22467 132.803 6.48352 132.98 6.81152C133.16 7.13951 133.25 7.54951 133.25 8.0415V13H131.572V11.9823H131.514C131.408 12.1881 131.258 12.381 131.065 12.5611C130.876 12.7379 130.636 12.881 130.347 12.9904C130.06 13.0965 129.724 13.1495 129.339 13.1495ZM129.792 11.8665C130.142 11.8665 130.446 11.7974 130.704 11.6591C130.961 11.5176 131.159 11.3311 131.297 11.0996C131.438 10.868 131.509 10.6156 131.509 10.3423V9.46924C131.454 9.51426 131.361 9.55606 131.229 9.59465C131.101 9.63323 130.956 9.667 130.795 9.69594C130.634 9.72488 130.475 9.75061 130.318 9.77311C130.16 9.79562 130.023 9.81492 129.908 9.831C129.647 9.86637 129.414 9.92425 129.208 10.0046C129.003 10.085 128.84 10.1976 128.721 10.3423C128.602 10.4838 128.543 10.6671 128.543 10.8922C128.543 11.2137 128.66 11.4565 128.895 11.6205C129.13 11.7845 129.429 11.8665 129.792 11.8665ZM136.752 3.12158V13H135.006V3.12158H136.752ZM141.828 13.1447C141.085 13.1447 140.443 12.9904 139.903 12.6817C139.366 12.3697 138.953 11.9292 138.663 11.36C138.374 10.7876 138.229 10.114 138.229 9.339C138.229 8.5769 138.374 7.90805 138.663 7.33245C138.956 6.75364 139.364 6.30345 139.889 5.98189C140.413 5.65711 141.029 5.49472 141.736 5.49472C142.193 5.49472 142.624 5.56868 143.029 5.7166C143.437 5.8613 143.797 6.08639 144.109 6.39188C144.424 6.69736 144.672 7.08646 144.852 7.55915C145.032 8.02864 145.122 8.58815 145.122 9.23771V9.77311H139.049V8.59619H143.448C143.445 8.26177 143.373 7.96432 143.231 7.70386C143.09 7.44017 142.892 7.23277 142.638 7.08163C142.387 6.9305 142.095 6.85493 141.76 6.85493C141.403 6.85493 141.09 6.94175 140.82 7.1154C140.549 7.28582 140.339 7.51092 140.188 7.79068C140.04 8.06722 139.964 8.3711 139.961 8.70231V9.7297C139.961 10.1606 140.04 10.5304 140.197 10.8391C140.355 11.1446 140.575 11.3793 140.858 11.5433C141.141 11.7041 141.472 11.7845 141.852 11.7845C142.106 11.7845 142.336 11.7491 142.542 11.6784C142.747 11.6044 142.926 11.4967 143.077 11.3552C143.228 11.2137 143.342 11.0385 143.419 10.8294L145.05 11.0127C144.947 11.4436 144.751 11.8199 144.461 12.1414C144.175 12.4598 143.808 12.7074 143.362 12.8842C142.915 13.0579 142.403 13.1447 141.828 13.1447ZM150.311 13L154.512 4.68438V4.61685H149.636V3.12158H156.364V4.65062L152.168 13H150.311ZM161.223 13.1351C160.58 13.1351 160.004 13.0145 159.496 12.7733C158.988 12.5289 158.584 12.1945 158.285 11.77C157.989 11.3456 157.832 10.86 157.813 10.3133H159.549C159.581 10.7185 159.756 11.0497 160.075 11.307C160.393 11.561 160.776 11.688 161.223 11.688C161.573 11.688 161.885 11.6076 162.158 11.4469C162.432 11.2861 162.647 11.0626 162.805 10.7764C162.962 10.4902 163.04 10.1638 163.036 9.79723C163.04 9.42422 162.961 9.09301 162.8 8.8036C162.639 8.5142 162.419 8.28749 162.139 8.1235C161.859 7.95628 161.538 7.87268 161.175 7.87268C160.879 7.86946 160.588 7.92413 160.301 8.03667C160.015 8.14922 159.789 8.29714 159.621 8.48043L158.005 8.21514L158.522 3.12158H164.252V4.61685H160.002L159.718 7.23598H159.776C159.959 7.02053 160.218 6.84207 160.552 6.70058C160.887 6.55588 161.253 6.48352 161.652 6.48352C162.25 6.48352 162.784 6.62501 163.253 6.90799C163.723 7.18775 164.093 7.57362 164.363 8.06562C164.633 8.55761 164.768 9.12034 164.768 9.75382C164.768 10.4066 164.617 10.9886 164.315 11.4999C164.016 12.008 163.599 12.4083 163.065 12.7009C162.535 12.9904 161.921 13.1351 161.223 13.1351ZM171.665 11.1478V10.6269C171.665 10.2442 171.746 9.89209 171.907 9.57053C172.071 9.24897 172.309 8.99011 172.621 8.79396C172.932 8.5978 173.31 8.49973 173.754 8.49973C174.211 8.49973 174.593 8.5978 174.902 8.79396C175.211 8.98689 175.444 9.24414 175.601 9.56571C175.762 9.88727 175.843 10.241 175.843 10.6269V11.1478C175.843 11.5305 175.762 11.8826 175.601 12.2041C175.441 12.5257 175.204 12.7846 174.892 12.9807C174.584 13.1769 174.204 13.2749 173.754 13.2749C173.304 13.2749 172.923 13.1769 172.611 12.9807C172.299 12.7846 172.063 12.5257 171.902 12.2041C171.744 11.8826 171.665 11.5305 171.665 11.1478ZM172.924 10.6269V11.1478C172.924 11.4018 172.986 11.635 173.108 11.8472C173.23 12.0594 173.445 12.1655 173.754 12.1655C174.066 12.1655 174.28 12.061 174.396 11.852C174.515 11.6398 174.574 11.405 174.574 11.1478V10.6269C174.574 10.3696 174.518 10.1349 174.405 9.92264C174.293 9.70719 174.076 9.59947 173.754 9.59947C173.452 9.59947 173.238 9.70719 173.113 9.92264C172.987 10.1349 172.924 10.3696 172.924 10.6269ZM166.644 5.49472V4.97379C166.644 4.58791 166.726 4.23419 166.89 3.91263C167.054 3.59106 167.292 3.33381 167.604 3.14088C167.916 2.94472 168.294 2.84665 168.738 2.84665C169.191 2.84665 169.572 2.94472 169.881 3.14088C170.193 3.33381 170.427 3.59106 170.585 3.91263C170.743 4.23419 170.821 4.58791 170.821 4.97379V5.49472C170.821 5.88059 170.741 6.23431 170.58 6.55588C170.423 6.87422 170.188 7.12987 169.876 7.3228C169.564 7.51574 169.185 7.61221 168.738 7.61221C168.284 7.61221 167.902 7.51574 167.59 7.3228C167.281 7.12987 167.046 6.87262 166.885 6.55105C166.725 6.22949 166.644 5.87738 166.644 5.49472ZM167.913 4.97379V5.49472C167.913 5.75197 167.972 5.98671 168.091 6.19894C168.214 6.40796 168.429 6.51247 168.738 6.51247C169.046 6.51247 169.259 6.40796 169.374 6.19894C169.493 5.98671 169.553 5.75197 169.553 5.49472V4.97379C169.553 4.71654 169.497 4.4818 169.384 4.26956C169.271 4.05412 169.056 3.94639 168.738 3.94639C168.432 3.94639 168.218 4.05412 168.096 4.26956C167.974 4.48501 167.913 4.71975 167.913 4.97379ZM167.194 13L173.986 3.12158H175.191L168.4 13H167.194Z" fill="black"/>
<path d="M97.9743 44V34.1216H104.303V35.6217H99.7638V38.3035H103.869V39.8036H99.7638V44H97.9743ZM108.592 44.1447C107.849 44.1447 107.208 43.9904 106.667 43.6817C106.13 43.3697 105.717 42.9292 105.428 42.36C105.138 41.7876 104.994 41.114 104.994 40.339C104.994 39.5769 105.138 38.908 105.428 38.3325C105.72 37.7536 106.129 37.3034 106.653 36.9819C107.177 36.6571 107.793 36.4947 108.5 36.4947C108.957 36.4947 109.388 36.5687 109.793 36.7166C110.201 36.8613 110.562 37.0864 110.873 37.3919C111.189 37.6974 111.436 38.0865 111.616 38.5592C111.796 39.0286 111.886 39.5882 111.886 40.2377V40.7731H105.814V39.5962H110.213C110.209 39.2618 110.137 38.9643 109.996 38.7039C109.854 38.4402 109.656 38.2328 109.402 38.0816C109.151 37.9305 108.859 37.8549 108.524 37.8549C108.167 37.8549 107.854 37.9418 107.584 38.1154C107.314 38.2858 107.103 38.5109 106.952 38.7907C106.804 39.0672 106.728 39.3711 106.725 39.7023V40.7297C106.725 41.1606 106.804 41.5304 106.962 41.8391C107.119 42.1446 107.339 42.3793 107.622 42.5433C107.905 42.7041 108.237 42.7845 108.616 42.7845C108.87 42.7845 109.1 42.7491 109.306 42.6784C109.512 42.6044 109.69 42.4967 109.841 42.3552C109.992 42.2137 110.107 42.0385 110.184 41.8294L111.814 42.0127C111.711 42.4436 111.515 42.8199 111.226 43.1414C110.939 43.4598 110.573 43.7074 110.126 43.8842C109.679 44.0579 109.168 44.1447 108.592 44.1447ZM113.364 44V36.5912H115.032V37.8501H115.119C115.274 37.4256 115.529 37.0944 115.886 36.8565C116.243 36.6153 116.669 36.4947 117.164 36.4947C117.666 36.4947 118.089 36.6169 118.433 36.8613C118.78 37.1025 119.025 37.4321 119.166 37.8501H119.243C119.407 37.4385 119.684 37.1105 120.073 36.8661C120.465 36.6185 120.93 36.4947 121.467 36.4947C122.149 36.4947 122.705 36.7102 123.136 37.1411C123.567 37.572 123.782 38.2006 123.782 39.027V44H122.031V39.2971C122.031 38.8373 121.909 38.5013 121.665 38.289C121.42 38.0736 121.121 37.9659 120.768 37.9659C120.346 37.9659 120.017 38.0977 119.779 38.3614C119.544 38.6219 119.427 38.9611 119.427 39.3791V44H117.714V39.2248C117.714 38.8421 117.599 38.5366 117.367 38.3083C117.139 38.08 116.84 37.9659 116.47 37.9659C116.219 37.9659 115.991 38.0302 115.785 38.1588C115.579 38.2842 115.415 38.4627 115.293 38.6942C115.171 38.9225 115.11 39.1894 115.11 39.4949V44H113.364ZM127.686 44.1495C127.216 44.1495 126.793 44.0659 126.417 43.8987C126.044 43.7283 125.748 43.4775 125.529 43.1463C125.314 42.815 125.206 42.4067 125.206 41.9211C125.206 41.5031 125.283 41.1574 125.438 40.8841C125.592 40.6107 125.803 40.3921 126.07 40.2281C126.337 40.0641 126.637 39.9403 126.972 39.8567C127.309 39.7698 127.658 39.7071 128.018 39.6685C128.452 39.6235 128.805 39.5833 129.075 39.548C129.345 39.5094 129.541 39.4515 129.663 39.3743C129.789 39.2939 129.851 39.1701 129.851 39.0029V38.974C129.851 38.6106 129.744 38.3292 129.528 38.1299C129.313 37.9305 129.002 37.8308 128.597 37.8308C128.17 37.8308 127.83 37.9241 127.579 38.1106C127.332 38.2971 127.165 38.5173 127.078 38.7714L125.447 38.5399C125.576 38.0897 125.788 37.7134 126.084 37.4112C126.38 37.1057 126.742 36.8774 127.169 36.7262C127.597 36.5719 128.07 36.4947 128.588 36.4947C128.944 36.4947 129.3 36.5365 129.654 36.6201C130.007 36.7037 130.33 36.842 130.623 37.0349C130.916 37.2247 131.15 37.4835 131.327 37.8115C131.507 38.1395 131.597 38.5495 131.597 39.0415V44H129.919V42.9823H129.861C129.755 43.1881 129.605 43.381 129.412 43.5611C129.223 43.7379 128.983 43.881 128.694 43.9904C128.407 44.0965 128.071 44.1495 127.686 44.1495ZM128.139 42.8665C128.489 42.8665 128.793 42.7974 129.051 42.6591C129.308 42.5176 129.506 42.3311 129.644 42.0996C129.785 41.868 129.856 41.6156 129.856 41.3423V40.4692C129.801 40.5143 129.708 40.5561 129.576 40.5946C129.448 40.6332 129.303 40.667 129.142 40.6959C128.981 40.7249 128.822 40.7506 128.665 40.7731C128.507 40.7956 128.37 40.8149 128.255 40.831C127.994 40.8664 127.761 40.9242 127.555 41.0046C127.35 41.085 127.187 41.1976 127.068 41.3423C126.949 41.4838 126.89 41.6671 126.89 41.8922C126.89 42.2137 127.007 42.4565 127.242 42.6205C127.477 42.7845 127.776 42.8665 128.139 42.8665ZM135.099 34.1216V44H133.353V34.1216H135.099ZM140.175 44.1447C139.432 44.1447 138.79 43.9904 138.25 43.6817C137.713 43.3697 137.3 42.9292 137.01 42.36C136.721 41.7876 136.576 41.114 136.576 40.339C136.576 39.5769 136.721 38.908 137.01 38.3325C137.303 37.7536 137.711 37.3034 138.236 36.9819C138.76 36.6571 139.376 36.4947 140.083 36.4947C140.54 36.4947 140.971 36.5687 141.376 36.7166C141.784 36.8613 142.144 37.0864 142.456 37.3919C142.771 37.6974 143.019 38.0865 143.199 38.5592C143.379 39.0286 143.469 39.5882 143.469 40.2377V40.7731H137.396V39.5962H141.795C141.792 39.2618 141.72 38.9643 141.578 38.7039C141.437 38.4402 141.239 38.2328 140.985 38.0816C140.734 37.9305 140.442 37.8549 140.107 37.8549C139.75 37.8549 139.437 37.9418 139.167 38.1154C138.896 38.2858 138.686 38.5109 138.535 38.7907C138.387 39.0672 138.311 39.3711 138.308 39.7023V40.7297C138.308 41.1606 138.387 41.5304 138.544 41.8391C138.702 42.1446 138.922 42.3793 139.205 42.5433C139.488 42.7041 139.819 42.7845 140.199 42.7845C140.453 42.7845 140.683 42.7491 140.889 42.6784C141.094 42.6044 141.273 42.4967 141.424 42.3552C141.575 42.2137 141.689 42.0385 141.766 41.8294L143.397 42.0127C143.294 42.4436 143.098 42.8199 142.808 43.1414C142.522 43.4598 142.155 43.7074 141.709 43.8842C141.262 44.0579 140.75 44.1447 140.175 44.1447ZM151.914 44.1351C151.441 44.1318 150.98 44.0498 150.529 43.8891C150.079 43.7251 149.674 43.4598 149.314 43.0932C148.954 42.7234 148.668 42.233 148.455 41.622C148.243 41.0079 148.139 40.2474 148.142 39.3406C148.142 38.4948 148.232 37.7408 148.412 37.0784C148.592 36.4159 148.851 35.8564 149.188 35.3998C149.526 34.94 149.933 34.5895 150.409 34.3483C150.888 34.1071 151.423 33.9865 152.015 33.9865C152.636 33.9865 153.186 34.1087 153.665 34.3531C154.147 34.5975 154.536 34.9319 154.832 35.3564C155.128 35.7776 155.311 36.2535 155.382 36.7841H153.621C153.531 36.4047 153.346 36.1024 153.067 35.8773C152.79 35.649 152.439 35.5349 152.015 35.5349C151.33 35.5349 150.803 35.8323 150.433 36.4272C150.066 37.0221 149.881 37.8389 149.878 38.8775H149.946C150.103 38.5945 150.308 38.3517 150.558 38.1492C150.809 37.9466 151.092 37.7906 151.407 37.6813C151.726 37.5687 152.062 37.5125 152.415 37.5125C152.994 37.5125 153.513 37.6507 153.973 37.9273C154.436 38.2038 154.803 38.5849 155.073 39.0704C155.343 39.5528 155.477 40.1059 155.473 40.7297C155.477 41.3793 155.329 41.9629 155.03 42.4806C154.731 42.9951 154.314 43.4003 153.78 43.6961C153.247 43.992 152.624 44.1383 151.914 44.1351ZM151.904 42.688C152.255 42.688 152.568 42.6028 152.845 42.4324C153.121 42.262 153.34 42.032 153.501 41.7426C153.661 41.4532 153.74 41.1284 153.737 40.7683C153.74 40.4146 153.663 40.0946 153.505 39.8084C153.351 39.5222 153.137 39.2955 152.864 39.1283C152.591 38.9611 152.279 38.8775 151.928 38.8775C151.668 38.8775 151.425 38.9273 151.2 39.027C150.975 39.1267 150.779 39.265 150.611 39.4418C150.444 39.6155 150.312 39.8181 150.216 40.0496C150.123 40.2779 150.074 40.5223 150.071 40.7828C150.074 41.1268 150.155 41.4436 150.312 41.733C150.47 42.0224 150.687 42.2539 150.964 42.4276C151.24 42.6012 151.554 42.688 151.904 42.688ZM160.721 44.1351C160.249 44.1318 159.787 44.0498 159.337 43.8891C158.887 43.7251 158.482 43.4598 158.121 43.0932C157.761 42.7234 157.475 42.233 157.263 41.622C157.051 41.0079 156.946 40.2474 156.949 39.3406C156.949 38.4948 157.039 37.7408 157.22 37.0784C157.4 36.4159 157.658 35.8564 157.996 35.3998C158.334 34.94 158.741 34.5895 159.216 34.3483C159.696 34.1071 160.231 33.9865 160.823 33.9865C161.443 33.9865 161.993 34.1087 162.472 34.3531C162.955 34.5975 163.344 34.9319 163.64 35.3564C163.935 35.7776 164.119 36.2535 164.189 36.7841H162.429C162.339 36.4047 162.154 36.1024 161.874 35.8773C161.598 35.649 161.247 35.5349 160.823 35.5349C160.138 35.5349 159.61 35.8323 159.241 36.4272C158.874 37.0221 158.689 37.8389 158.686 38.8775H158.753C158.911 38.5945 159.115 38.3517 159.366 38.1492C159.617 37.9466 159.9 37.7906 160.215 37.6813C160.533 37.5687 160.869 37.5125 161.223 37.5125C161.802 37.5125 162.321 37.6507 162.781 37.9273C163.244 38.2038 163.611 38.5849 163.881 39.0704C164.151 39.5528 164.284 40.1059 164.281 40.7297C164.284 41.3793 164.136 41.9629 163.837 42.4806C163.538 42.9951 163.122 43.4003 162.588 43.6961C162.054 43.992 161.432 44.1383 160.721 44.1351ZM160.712 42.688C161.062 42.688 161.376 42.6028 161.652 42.4324C161.929 42.262 162.147 42.032 162.308 41.7426C162.469 41.4532 162.548 41.1284 162.545 40.7683C162.548 40.4146 162.471 40.0946 162.313 39.8084C162.159 39.5222 161.945 39.2955 161.672 39.1283C161.398 38.9611 161.086 38.8775 160.736 38.8775C160.475 38.8775 160.233 38.9273 160.007 39.027C159.782 39.1267 159.586 39.265 159.419 39.4418C159.252 39.6155 159.12 39.8181 159.023 40.0496C158.93 40.2779 158.882 40.5223 158.879 40.7828C158.882 41.1268 158.962 41.4436 159.12 41.733C159.278 42.0224 159.495 42.2539 159.771 42.4276C160.048 42.6012 160.361 42.688 160.712 42.688ZM171.193 42.1478V41.6269C171.193 41.2442 171.273 40.8921 171.434 40.5705C171.598 40.249 171.836 39.9901 172.148 39.794C172.46 39.5978 172.838 39.4997 173.282 39.4997C173.738 39.4997 174.121 39.5978 174.43 39.794C174.738 39.9869 174.971 40.2441 175.129 40.5657C175.29 40.8873 175.37 41.241 175.37 41.6269V42.1478C175.37 42.5305 175.29 42.8826 175.129 43.2041C174.968 43.5257 174.732 43.7846 174.42 43.9807C174.111 44.1769 173.732 44.2749 173.282 44.2749C172.831 44.2749 172.45 44.1769 172.138 43.9807C171.827 43.7846 171.59 43.5257 171.429 43.2041C171.272 42.8826 171.193 42.5305 171.193 42.1478ZM172.452 41.6269V42.1478C172.452 42.4018 172.513 42.635 172.635 42.8472C172.757 43.0594 172.973 43.1655 173.282 43.1655C173.594 43.1655 173.807 43.061 173.923 42.852C174.042 42.6398 174.102 42.405 174.102 42.1478V41.6269C174.102 41.3696 174.045 41.1349 173.933 40.9226C173.82 40.7072 173.603 40.5995 173.282 40.5995C172.979 40.5995 172.765 40.7072 172.64 40.9226C172.515 41.1349 172.452 41.3696 172.452 41.6269ZM166.172 36.4947V35.9738C166.172 35.5879 166.254 35.2342 166.418 34.9126C166.582 34.5911 166.82 34.3338 167.132 34.1409C167.444 33.9447 167.821 33.8466 168.265 33.8466C168.719 33.8466 169.1 33.9447 169.408 34.1409C169.72 34.3338 169.955 34.5911 170.113 34.9126C170.27 35.2342 170.349 35.5879 170.349 35.9738V36.4947C170.349 36.8806 170.269 37.2343 170.108 37.5559C169.95 37.8742 169.715 38.1299 169.404 38.3228C169.092 38.5157 168.712 38.6122 168.265 38.6122C167.812 38.6122 167.429 38.5157 167.117 38.3228C166.809 38.1299 166.574 37.8726 166.413 37.5511C166.252 37.2295 166.172 36.8774 166.172 36.4947ZM167.44 35.9738V36.4947C167.44 36.752 167.5 36.9867 167.619 37.1989C167.741 37.408 167.957 37.5125 168.265 37.5125C168.574 37.5125 168.786 37.408 168.902 37.1989C169.021 36.9867 169.08 36.752 169.08 36.4947V35.9738C169.08 35.7165 169.024 35.4818 168.912 35.2696C168.799 35.0541 168.584 34.9464 168.265 34.9464C167.96 34.9464 167.746 35.0541 167.624 35.2696C167.501 35.485 167.44 35.7198 167.44 35.9738ZM166.722 44L173.513 34.1216H174.719L167.928 44H166.722Z" fill="black"/>
<path d="M109.801 70.0608C109.801 71.1252 109.602 72.0368 109.203 72.7957C108.808 73.5514 108.267 74.1302 107.582 74.5321C106.901 74.9341 106.127 75.1351 105.262 75.1351C104.397 75.1351 103.622 74.9341 102.937 74.5321C102.256 74.127 101.716 73.5465 101.317 72.7909C100.921 72.032 100.724 71.1219 100.724 70.0608C100.724 68.9964 100.921 68.0864 101.317 67.3307C101.716 66.5718 102.256 65.9914 102.937 65.5895C103.622 65.1875 104.397 64.9865 105.262 64.9865C106.127 64.9865 106.901 65.1875 107.582 65.5895C108.267 65.9914 108.808 66.5718 109.203 67.3307C109.602 68.0864 109.801 68.9964 109.801 70.0608ZM108.002 70.0608C108.002 69.3115 107.885 68.6797 107.65 68.1652C107.418 67.6475 107.097 67.2568 106.685 66.9931C106.274 66.7262 105.799 66.5927 105.262 66.5927C104.725 66.5927 104.251 66.7262 103.839 66.9931C103.428 67.2568 103.105 67.6475 102.87 68.1652C102.638 68.6797 102.523 69.3115 102.523 70.0608C102.523 70.81 102.638 71.4435 102.87 71.9612C103.105 72.4757 103.428 72.8664 103.839 73.1333C104.251 73.397 104.725 73.5288 105.262 73.5288C105.799 73.5288 106.274 73.397 106.685 73.1333C107.097 72.8664 107.418 72.4757 107.65 71.9612C107.885 71.4435 108.002 70.81 108.002 70.0608ZM115.115 67.5912V68.9418H110.856V67.5912H115.115ZM111.908 65.8162H113.654V72.7716C113.654 73.0063 113.689 73.1864 113.76 73.3118C113.834 73.434 113.931 73.5176 114.049 73.5626C114.168 73.6076 114.3 73.6301 114.445 73.6301C114.554 73.6301 114.654 73.6221 114.744 73.606C114.837 73.5899 114.908 73.5755 114.956 73.5626L115.251 74.9276C115.157 74.9598 115.024 74.9952 114.85 75.0338C114.68 75.0724 114.471 75.0949 114.223 75.1013C113.786 75.1142 113.392 75.0482 113.041 74.9035C112.691 74.7556 112.413 74.5273 112.207 74.2186C112.004 73.9099 111.905 73.524 111.908 73.061V65.8162ZM118.481 70.6589V75H116.735V65.1216H118.442V68.8501H118.529C118.703 68.4321 118.971 68.1025 119.335 67.8613C119.701 67.6169 120.168 67.4947 120.734 67.4947C121.248 67.4947 121.697 67.6024 122.079 67.8179C122.462 68.0333 122.758 68.3485 122.967 68.7633C123.179 69.1781 123.285 69.6846 123.285 70.2827V75H121.539V70.5528C121.539 70.0544 121.41 69.6669 121.153 69.3903C120.899 69.1106 120.542 68.9707 120.082 68.9707C119.774 68.9707 119.497 69.0382 119.253 69.1733C119.012 69.3051 118.822 69.4964 118.684 69.7473C118.549 69.9981 118.481 70.302 118.481 70.6589ZM128.345 75.1447C127.602 75.1447 126.961 74.9904 126.42 74.6817C125.883 74.3697 125.47 73.9292 125.181 73.36C124.891 72.7876 124.747 72.114 124.747 71.339C124.747 70.5769 124.891 69.908 125.181 69.3325C125.473 68.7536 125.882 68.3034 126.406 67.9819C126.93 67.6571 127.546 67.4947 128.253 67.4947C128.71 67.4947 129.141 67.5687 129.546 67.7166C129.954 67.8613 130.315 68.0864 130.626 68.3919C130.942 68.6974 131.189 69.0865 131.369 69.5592C131.549 70.0286 131.639 70.5882 131.639 71.2377V71.7731H125.567V70.5962H129.966C129.962 70.2618 129.89 69.9643 129.749 69.7039C129.607 69.4402 129.409 69.2328 129.155 69.0816C128.904 68.9305 128.612 68.8549 128.277 68.8549C127.921 68.8549 127.607 68.9418 127.337 69.1154C127.067 69.2858 126.856 69.5109 126.705 69.7907C126.557 70.0672 126.482 70.3711 126.478 70.7023V71.7297C126.478 72.1606 126.557 72.5304 126.715 72.8391C126.872 73.1446 127.092 73.3793 127.375 73.5433C127.658 73.7041 127.99 73.7845 128.369 73.7845C128.623 73.7845 128.853 73.7491 129.059 73.6784C129.265 73.6044 129.443 73.4967 129.594 73.3552C129.745 73.2137 129.86 73.0385 129.937 72.8294L131.567 73.0127C131.464 73.4436 131.268 73.8199 130.979 74.1414C130.692 74.4598 130.326 74.7074 129.879 74.8842C129.432 75.0579 128.921 75.1447 128.345 75.1447ZM133.117 75V67.5912H134.81V68.826H134.887C135.022 68.3983 135.253 68.0687 135.581 67.8372C135.913 67.6024 136.29 67.4851 136.715 67.4851C136.811 67.4851 136.919 67.4899 137.038 67.4995C137.16 67.506 137.262 67.5172 137.342 67.5333V69.1395C137.268 69.1138 137.151 69.0913 136.99 69.072C136.832 69.0495 136.679 69.0382 136.532 69.0382C136.213 69.0382 135.927 69.1074 135.673 69.2456C135.422 69.3807 135.224 69.5688 135.08 69.81C134.935 70.0511 134.863 70.3293 134.863 70.6444V75H133.117ZM144.358 69.5495L142.766 69.7232C142.721 69.5624 142.642 69.4112 142.53 69.2697C142.42 69.1283 142.272 69.0141 142.086 68.9273C141.899 68.8405 141.671 68.797 141.401 68.797C141.037 68.797 140.732 68.8758 140.484 69.0334C140.24 69.191 140.119 69.3952 140.123 69.646C140.119 69.8614 140.198 70.0367 140.359 70.1717C140.523 70.3068 140.793 70.4177 141.169 70.5045L142.433 70.7747C143.134 70.9258 143.655 71.1654 143.996 71.4934C144.34 71.8213 144.514 72.2506 144.517 72.7812C144.514 73.2475 144.377 73.6591 144.107 74.016C143.84 74.3697 143.468 74.6463 142.993 74.8456C142.517 75.045 141.97 75.1447 141.353 75.1447C140.446 75.1447 139.716 74.955 139.163 74.5755C138.61 74.1929 138.28 73.6607 138.174 72.979L139.877 72.815C139.954 73.1494 140.118 73.4018 140.369 73.5723C140.619 73.7427 140.946 73.8279 141.348 73.8279C141.763 73.8279 142.095 73.7427 142.346 73.5723C142.6 73.4018 142.727 73.1912 142.727 72.9404C142.727 72.7282 142.645 72.5529 142.481 72.4146C142.321 72.2764 142.07 72.1702 141.729 72.0963L140.465 71.831C139.754 71.6831 139.229 71.4339 138.888 71.0834C138.547 70.7296 138.378 70.2827 138.381 69.7424C138.378 69.2858 138.502 68.8903 138.753 68.5559C139.007 68.2182 139.359 67.9578 139.809 67.7745C140.263 67.588 140.785 67.4947 141.377 67.4947C142.245 67.4947 142.928 67.6796 143.427 68.0494C143.928 68.4192 144.239 68.9192 144.358 69.5495ZM152.741 75.1351C152.098 75.1351 151.522 75.0145 151.014 74.7733C150.506 74.5289 150.102 74.1945 149.803 73.77C149.507 73.3456 149.35 72.86 149.331 72.3133H151.067C151.099 72.7185 151.274 73.0497 151.593 73.307C151.911 73.561 152.294 73.688 152.741 73.688C153.091 73.688 153.403 73.6076 153.677 73.4469C153.95 73.2861 154.165 73.0626 154.323 72.7764C154.48 72.4902 154.558 72.1638 154.554 71.7972C154.558 71.4242 154.479 71.093 154.318 70.8036C154.157 70.5142 153.937 70.2875 153.657 70.1235C153.377 69.9563 153.056 69.8727 152.693 69.8727C152.397 69.8695 152.106 69.9241 151.819 70.0367C151.533 70.1492 151.307 70.2971 151.139 70.4804L149.524 70.2151L150.04 65.1216H155.77V66.6169H151.52L151.236 69.236H151.294C151.477 69.0205 151.736 68.8421 152.07 68.7006C152.405 68.5559 152.771 68.4835 153.17 68.4835C153.768 68.4835 154.302 68.625 154.771 68.908C155.241 69.1877 155.611 69.5736 155.881 70.0656C156.151 70.5576 156.286 71.1203 156.286 71.7538C156.286 72.4066 156.135 72.9886 155.833 73.4999C155.534 74.008 155.117 74.4083 154.583 74.7009C154.053 74.9904 153.439 75.1351 152.741 75.1351ZM157.902 75V73.7073L161.331 70.3454C161.659 70.0142 161.933 69.7199 162.151 69.4627C162.37 69.2054 162.534 68.9562 162.643 68.7151C162.753 68.4739 162.807 68.2166 162.807 67.9433C162.807 67.6314 162.737 67.3645 162.595 67.1426C162.454 66.9175 162.259 66.7439 162.011 66.6217C161.764 66.4995 161.482 66.4384 161.167 66.4384C160.843 66.4384 160.558 66.5059 160.314 66.641C160.069 66.7728 159.879 66.9609 159.744 67.2053C159.613 67.4497 159.547 67.7407 159.547 68.0784H157.844C157.844 67.4513 157.987 66.9063 158.273 66.4432C158.559 65.9802 158.953 65.6216 159.455 65.3676C159.96 65.1135 160.539 64.9865 161.191 64.9865C161.854 64.9865 162.436 65.1103 162.938 65.3579C163.439 65.6055 163.828 65.9448 164.105 66.3757C164.385 66.8066 164.524 67.2986 164.524 67.8517C164.524 68.2215 164.454 68.5848 164.312 68.9418C164.171 69.2987 163.922 69.6942 163.565 70.1283C163.211 70.5624 162.714 71.0882 162.074 71.7056L160.371 73.4372V73.5047H164.674V75H157.902ZM171.62 73.1478V72.6269C171.62 72.2442 171.7 71.8921 171.861 71.5705C172.025 71.249 172.263 70.9901 172.575 70.794C172.887 70.5978 173.265 70.4997 173.708 70.4997C174.165 70.4997 174.548 70.5978 174.856 70.794C175.165 70.9869 175.398 71.2441 175.556 71.5657C175.716 71.8873 175.797 72.241 175.797 72.6269V73.1478C175.797 73.5305 175.716 73.8826 175.556 74.2041C175.395 74.5257 175.159 74.7846 174.847 74.9807C174.538 75.1769 174.158 75.2749 173.708 75.2749C173.258 75.2749 172.877 75.1769 172.565 74.9807C172.253 74.7846 172.017 74.5257 171.856 74.2041C171.699 73.8826 171.62 73.5305 171.62 73.1478ZM172.879 72.6269V73.1478C172.879 73.4018 172.94 73.635 173.062 73.8472C173.184 74.0594 173.4 74.1655 173.708 74.1655C174.02 74.1655 174.234 74.061 174.35 73.852C174.469 73.6398 174.528 73.405 174.528 73.1478V72.6269C174.528 72.3696 174.472 72.1349 174.359 71.9226C174.247 71.7072 174.03 71.5995 173.708 71.5995C173.406 71.5995 173.192 71.7072 173.067 71.9226C172.941 72.1349 172.879 72.3696 172.879 72.6269ZM166.599 67.4947V66.9738C166.599 66.5879 166.681 66.2342 166.845 65.9126C167.009 65.5911 167.246 65.3338 167.558 65.1409C167.87 64.9447 168.248 64.8466 168.692 64.8466C169.145 64.8466 169.526 64.9447 169.835 65.1409C170.147 65.3338 170.382 65.5911 170.539 65.9126C170.697 66.2342 170.776 66.5879 170.776 66.9738V67.4947C170.776 67.8806 170.695 68.2343 170.534 68.5559C170.377 68.8742 170.142 69.1299 169.83 69.3228C169.518 69.5157 169.139 69.6122 168.692 69.6122C168.238 69.6122 167.856 69.5157 167.544 69.3228C167.235 69.1299 167 68.8726 166.84 68.5511C166.679 68.2295 166.599 67.8774 166.599 67.4947ZM167.867 66.9738V67.4947C167.867 67.752 167.927 67.9867 168.046 68.1989C168.168 68.408 168.383 68.5125 168.692 68.5125C169.001 68.5125 169.213 68.408 169.329 68.1989C169.448 67.9867 169.507 67.752 169.507 67.4947V66.9738C169.507 66.7165 169.451 66.4818 169.338 66.2696C169.226 66.0541 169.01 65.9464 168.692 65.9464C168.386 65.9464 168.173 66.0541 168.05 66.2696C167.928 66.485 167.867 66.7198 167.867 66.9738ZM167.148 75L173.94 65.1216H175.146L168.354 75H167.148Z" fill="black"/>
</svg>
