<svg width="759" height="623" viewBox="0 0 759 623" fill="none" xmlns="http://www.w3.org/2000/svg">
<g clip-path="url(#clip0_11_26)">
<path d="M102.27 590.196C101.399 590.236 100.537 590.007 99.8007 589.541C99.0643 589.075 98.489 588.393 98.1527 587.589C97.8165 586.785 97.7355 585.897 97.9209 585.045C98.1063 584.194 98.5489 583.42 99.189 582.828C99.2962 582.402 99.3731 582.096 99.4803 581.67C99.4419 581.577 99.4033 581.485 99.3645 581.392C98.4874 579.32 97.0175 577.554 95.1396 576.314C93.2617 575.075 91.0596 574.419 88.8097 574.427C86.5598 574.435 84.3625 575.108 82.4939 576.361C80.6253 577.615 79.1686 579.392 78.3069 581.47C74.8628 589.765 70.4779 598.074 69.3982 606.845C68.9227 610.721 69.1232 614.651 69.991 618.46C61.9018 600.814 57.7013 581.635 57.6742 562.224C57.6725 557.353 57.9431 552.486 58.4848 547.645C58.9325 543.676 59.5536 539.736 60.3482 535.824C64.6838 514.598 73.9926 494.704 87.5101 477.774C94.0526 474.204 99.3436 468.715 102.67 462.045C103.875 459.648 104.727 457.089 105.199 454.447C104.461 454.544 103.711 454.604 102.973 454.653C102.743 454.665 102.501 454.677 102.271 454.689L102.184 454.693C101.373 454.729 100.569 454.531 99.8679 454.121C99.1672 453.71 98.5999 453.106 98.2344 452.381C97.8689 451.656 97.7208 450.841 97.8078 450.034C97.8949 449.227 98.2134 448.462 98.725 447.831C99.0437 447.439 99.3626 447.047 99.6816 446.656C100.166 446.051 100.662 445.458 101.146 444.853C101.201 444.795 101.254 444.735 101.303 444.671C101.86 443.982 102.416 443.304 102.973 442.614C101.957 441.038 100.59 439.717 98.9799 438.755C93.4023 435.488 85.7074 437.751 81.6784 442.796C77.6374 447.841 76.8752 454.919 78.2786 461.223C79.6588 466.586 81.9418 471.676 85.0299 476.273C84.7274 476.661 84.4128 477.036 84.1103 477.423C78.581 484.533 73.7619 492.167 69.722 500.217C70.7045 491.199 69.5319 482.076 66.3007 473.6C63.026 465.7 56.8879 459.046 51.4827 452.217C44.99 444.014 31.6763 447.594 30.5324 457.993C30.5214 458.093 30.5106 458.194 30.5 458.295C31.3029 458.748 32.0888 459.228 32.8577 459.737C33.8237 460.382 34.5722 461.304 35.0052 462.382C35.4381 463.461 35.5354 464.644 35.2841 465.779C35.0328 466.913 34.4447 467.945 33.5969 468.739C32.7491 469.533 31.6812 470.053 30.533 470.23L30.4154 470.248C30.7014 473.142 31.207 476.009 31.9277 478.826C34.0162 486.69 37.7068 494.038 42.7681 500.409C47.8294 506.78 54.1522 512.036 61.3402 515.849C61.8121 516.091 62.272 516.333 62.7438 516.563C58.6849 528.065 56.1389 540.047 55.1699 552.206C54.6212 559.38 54.6536 566.586 55.2667 573.754L55.2304 573.5C53.6816 565.529 49.4294 558.337 43.1919 553.138C33.9276 545.527 20.839 542.725 10.8445 536.608C9.78234 535.926 8.54728 535.562 7.28502 535.559C6.02277 535.556 4.78599 535.914 3.7205 536.591C2.65502 537.267 1.80527 538.235 1.27152 539.379C0.737777 540.522 0.54228 541.795 0.70808 543.046C0.721468 543.135 0.735115 543.224 0.748975 543.313C2.23885 543.92 3.68944 544.619 5.0924 545.406C5.89527 545.859 6.68121 546.34 7.45015 546.849C8.41615 547.494 9.16465 548.416 9.59761 549.494C10.0306 550.572 10.1277 551.756 9.87644 552.89C9.62514 554.025 9.03709 555.057 8.1893 555.851C7.34152 556.645 6.27357 557.165 5.12536 557.342L5.0077 557.36C4.92299 557.372 4.85042 557.384 4.76585 557.397C7.31151 563.475 10.8844 569.069 15.3281 573.936C20.8176 579.826 27.4523 584.533 34.8256 587.768C42.1988 591.003 50.1551 592.698 58.2067 592.749H58.2188C60.4045 602.247 63.5713 611.492 67.6681 620.335H101.424C101.545 619.96 101.654 619.572 101.763 619.197C98.6383 619.394 95.5015 619.207 92.4224 618.641C94.9269 615.568 97.4313 612.47 99.9358 609.397C99.9917 609.34 100.044 609.279 100.093 609.216C101.364 607.643 102.646 606.082 103.916 604.509L103.917 604.507C103.985 599.686 103.432 594.876 102.271 590.196L102.27 590.196Z" fill="#1E1E1E"/>
<path d="M656.489 590.196C657.36 590.236 658.222 590.007 658.958 589.541C659.695 589.075 660.27 588.393 660.606 587.589C660.943 586.785 661.024 585.897 660.838 585.045C660.653 584.194 660.21 583.42 659.57 582.828C659.463 582.402 659.386 582.096 659.279 581.67C659.317 581.577 659.356 581.484 659.395 581.392C660.272 579.32 661.742 577.554 663.62 576.314C665.497 575.075 667.7 574.419 669.949 574.427C672.199 574.435 674.397 575.108 676.265 576.361C678.134 577.615 679.591 579.392 680.452 581.47C683.896 589.765 688.281 598.074 689.361 606.845C689.836 610.721 689.636 614.651 688.768 618.459C696.857 600.814 701.058 581.635 701.085 562.224C701.087 557.353 700.816 552.486 700.274 547.645C699.827 543.676 699.205 539.736 698.411 535.824C694.075 514.598 684.767 494.704 671.249 477.774C664.707 474.204 659.416 468.715 656.089 462.045C654.884 459.648 654.032 457.089 653.56 454.447C654.298 454.544 655.048 454.604 655.786 454.653C656.016 454.665 656.258 454.677 656.488 454.689L656.575 454.693C657.386 454.729 658.19 454.531 658.891 454.121C659.592 453.71 660.159 453.107 660.525 452.381C660.89 451.656 661.038 450.841 660.951 450.034C660.864 449.227 660.546 448.462 660.034 447.831C659.715 447.439 659.397 447.047 659.078 446.656C658.594 446.051 658.098 445.458 657.614 444.853C657.558 444.795 657.505 444.735 657.456 444.671C656.9 443.982 656.343 443.304 655.787 442.614C656.802 441.038 658.169 439.717 659.779 438.755C665.357 435.488 673.052 437.751 677.081 442.796C681.122 447.841 681.884 454.919 680.481 461.223C679.1 466.586 676.817 471.676 673.729 476.273C674.032 476.661 674.346 477.036 674.649 477.423C680.178 484.533 684.997 492.167 689.037 500.217C688.055 491.199 689.227 482.076 692.458 473.6C695.733 465.7 701.871 459.046 707.277 452.217C713.769 444.014 727.083 447.594 728.227 457.993C728.238 458.093 728.249 458.194 728.259 458.295C727.456 458.748 726.67 459.228 725.901 459.737C724.935 460.382 724.187 461.304 723.754 462.382C723.321 463.461 723.224 464.644 723.475 465.779C723.726 466.913 724.314 467.945 725.162 468.739C726.01 469.533 727.078 470.053 728.226 470.23L728.344 470.248C728.058 473.142 727.552 476.009 726.831 478.826C724.743 486.69 721.052 494.038 715.991 500.409C710.93 506.78 704.607 512.036 697.419 515.849C696.947 516.091 696.487 516.333 696.015 516.563C700.074 528.065 702.62 540.047 703.589 552.206C704.138 559.38 704.106 566.586 703.493 573.754L703.529 573.5C705.078 565.529 709.33 558.337 715.567 553.138C724.832 545.527 737.92 542.725 747.915 536.608C748.977 535.926 750.212 535.562 751.474 535.559C752.736 535.556 753.973 535.914 755.039 536.591C756.104 537.267 756.954 538.235 757.488 539.378C758.021 540.522 758.217 541.795 758.051 543.046C758.038 543.135 758.024 543.224 758.01 543.313C756.52 543.92 755.07 544.619 753.667 545.406C752.864 545.859 752.078 546.34 751.309 546.849C750.343 547.494 749.595 548.416 749.162 549.494C748.729 550.572 748.632 551.756 748.883 552.89C749.134 554.025 749.722 555.056 750.57 555.851C751.418 556.645 752.486 557.165 753.634 557.342L753.752 557.36C753.836 557.372 753.909 557.384 753.993 557.396C751.448 563.475 747.875 569.069 743.431 573.936C737.942 579.826 731.307 584.533 723.934 587.768C716.56 591.003 708.604 592.698 700.553 592.749H700.54C698.355 602.247 695.188 611.492 691.091 620.335H657.335C657.214 619.96 657.105 619.572 656.996 619.197C660.121 619.394 663.258 619.207 666.337 618.641C663.832 615.568 661.328 612.47 658.823 609.397C658.768 609.34 658.715 609.279 658.666 609.216C657.396 607.643 656.113 606.082 654.843 604.509L654.842 604.507C654.774 599.686 655.329 594.876 656.489 590.196Z" fill="#1E1E1E"/>
<path d="M238.502 605.241H246.674L250.564 573.718H238.502V605.241Z" fill="#9E616A"/>
<path d="M235.835 599.643L248.891 598.864V604.458L261.305 613.031C261.918 613.454 262.379 614.063 262.622 614.767C262.865 615.471 262.877 616.235 262.655 616.946C262.433 617.658 261.99 618.28 261.39 618.721C260.79 619.163 260.064 619.401 259.319 619.401H243.774L241.095 613.867L240.049 619.401H234.188L235.835 599.643Z" fill="#2F2E41"/>
<path d="M136.072 598.297L143.665 601.32L158.936 573.471L147.73 569.01L136.072 598.297Z" fill="#9E616A"/>
<path d="M135.664 592.111L148.083 596.215L146.014 601.413L154.377 613.969C154.79 614.589 154.994 615.325 154.959 616.069C154.924 616.814 154.652 617.527 154.183 618.106C153.714 618.685 153.072 619.099 152.351 619.287C151.63 619.475 150.868 619.428 150.176 619.153L135.734 613.404L135.291 607.272L132.272 612.026L126.827 609.858L135.664 592.111Z" fill="#2F2E41"/>
<path d="M222.028 511.441L208.4 447.843L187.12 518.505L153.423 585.511L153.244 585.867L142.57 580.12C141.064 552.913 144.642 527.417 157.727 505.123L163.924 443.932C164.114 441.841 168.736 392.754 183.371 384.05L187.658 374.276L230.288 363.748L230.443 363.922C234.542 368.53 237.25 374.206 238.252 380.291L250.99 457.46L250.998 457.503L247.582 511.337L252.254 590.76H235.349C224.891 571.082 220.451 544.642 222.028 511.441Z" fill="#2F2E41"/>
<path d="M430.232 251.93C430.232 270.005 457.073 301.747 462.96 284.658C470.168 263.735 485.543 250.472 495.688 251.93C513.58 254.5 481.035 219.201 462.96 219.201C454.28 219.201 445.956 222.65 439.818 228.787C433.68 234.925 430.232 243.249 430.232 251.93Z" fill="#E6E6E6"/>
<path d="M423.357 149.433C419.113 167.003 438.01 182.162 456.085 182.162C460.383 182.162 464.639 181.315 468.61 179.67C472.581 178.026 476.189 175.615 479.228 172.576C482.267 169.537 484.678 165.929 486.322 161.958C487.967 157.987 488.814 153.731 488.814 149.434C488.814 131.358 464.451 132.728 456.085 116.705C446.509 98.3629 432.481 111.666 423.357 149.433Z" fill="#E6E6E6"/>
<path d="M272.115 148.059C272.115 156.739 275.563 165.063 281.701 171.201C287.838 177.339 296.163 180.787 304.843 180.787C322.918 180.787 338.097 166.126 337.571 148.059C336.471 110.209 321.808 95.3777 304.843 115.33C293.135 129.101 272.115 129.983 272.115 148.059Z" fill="#E6E6E6"/>
<path d="M269.365 251.93C254.091 245.327 280.618 279.164 302.093 284.658C319.605 289.137 334.821 270.005 334.821 251.93C334.821 247.632 333.975 243.376 332.33 239.405C330.685 235.434 328.275 231.826 325.236 228.787C322.196 225.748 318.589 223.337 314.618 221.693C310.647 220.048 306.391 219.201 302.093 219.201C284.018 219.201 285.956 259.102 269.365 251.93Z" fill="#E6E6E6"/>
<path d="M459.298 134.579H415.521C414.611 134.579 413.71 134.759 412.869 135.107C412.029 135.455 411.265 135.965 410.622 136.609C409.978 137.252 409.468 138.016 409.12 138.856C408.772 139.697 408.592 140.598 408.592 141.508V185.285C408.592 187.123 409.322 188.885 410.622 190.184C411.921 191.483 413.683 192.213 415.521 192.213H459.298C461.136 192.213 462.898 191.483 464.197 190.184C465.497 188.885 466.226 187.123 466.226 185.285V141.507C466.226 139.67 465.497 137.908 464.197 136.609C462.898 135.309 461.136 134.579 459.298 134.579ZM451.078 149.359H446.058C442.63 149.359 441.963 150.982 441.963 153.378V158.459H450.138L449.076 166.437H441.948V187.24C438.9 187.812 435.771 187.804 432.726 187.218V166.437H426.189V158.459H432.848V152.56C432.848 145.507 437.746 141.655 444.056 141.655C447.089 141.655 450.335 141.882 451.078 141.988V149.359Z" fill="#6C63FF"/>
<path d="M349.794 134.579H306.016C304.178 134.579 302.416 135.309 301.117 136.609C299.818 137.908 299.088 139.67 299.088 141.508V185.285C299.088 187.123 299.818 188.885 301.117 190.184C302.416 191.483 304.178 192.213 306.016 192.213H349.794C351.631 192.213 353.393 191.483 354.693 190.184C355.992 188.885 356.722 187.123 356.722 185.285V141.507C356.722 139.67 355.992 137.908 354.693 136.609C353.393 135.309 351.631 134.579 349.794 134.579ZM327.905 178.765C324.865 178.765 321.894 177.864 319.366 176.175C316.839 174.486 314.869 172.086 313.705 169.278C312.542 166.469 312.238 163.379 312.831 160.398C313.424 157.417 314.888 154.678 317.037 152.529C319.186 150.379 321.925 148.916 324.906 148.323C327.888 147.73 330.978 148.034 333.786 149.197C336.594 150.36 338.995 152.33 340.684 154.858C342.372 157.385 343.274 160.357 343.274 163.396C343.274 167.472 341.655 171.382 338.772 174.264C335.89 177.146 331.981 178.765 327.905 178.765ZM345.195 148.027C344.435 148.027 343.692 147.802 343.06 147.38C342.428 146.958 341.936 146.357 341.645 145.655C341.354 144.953 341.278 144.181 341.426 143.435C341.575 142.69 341.941 142.006 342.478 141.468C343.015 140.931 343.7 140.565 344.445 140.417C345.191 140.268 345.963 140.344 346.665 140.635C347.367 140.926 347.967 141.419 348.39 142.05C348.812 142.682 349.037 143.425 349.037 144.185C349.037 145.204 348.632 146.181 347.912 146.902C347.191 147.622 346.214 148.027 345.195 148.027Z" fill="#6C63FF"/>
<path d="M469.845 237.978C471.094 237.987 472.325 238.27 473.452 238.806C474.58 239.342 475.576 240.119 476.371 241.082C477.165 242.044 477.739 243.17 478.052 244.378C478.365 245.587 478.409 246.849 478.181 248.077L494.537 258.72L490.494 270.237L467.606 254.883C465.57 254.363 463.794 253.115 462.617 251.373C461.439 249.632 460.941 247.52 461.217 245.436C461.493 243.353 462.524 241.442 464.114 240.068C465.704 238.693 467.743 237.95 469.845 237.978Z" fill="#FFB6B6"/>
<path d="M475.671 265.965L487.345 252.486L502.43 259.482L533.255 284.014C537.297 284.486 567.961 288.444 567.397 299.705C567.384 301.021 567.085 302.318 566.522 303.508C565.96 304.698 565.146 305.752 564.137 306.597C559.298 310.592 550.91 309.459 550.597 309.412L530.529 308.408C529.479 308.661 518.585 311.164 512.819 307.582C511.07 306.496 475.671 265.965 475.671 265.965Z" fill="#3F3D56"/>
<path d="M509.338 610.238L499.777 610.237L495.228 573.357H509.339L509.338 610.238Z" fill="#FFB6B6"/>
<path d="M511.777 619.506L480.946 619.505V619.115C480.946 615.932 482.211 612.88 484.461 610.63C486.712 608.379 489.764 607.115 492.946 607.115L498.579 602.842L509.086 607.115L511.777 607.115L511.777 619.506Z" fill="#2F2E41"/>
<path d="M614.285 602.754L605.068 605.3L590.864 570.961L604.467 567.205L614.285 602.754Z" fill="#FFB6B6"/>
<path d="M619.103 611.039L589.385 619.247L589.282 618.871C588.434 615.803 588.841 612.525 590.41 609.756C591.98 606.988 594.586 604.957 597.653 604.109L601.945 598.491L613.211 599.812L615.805 599.096L619.103 611.039Z" fill="#2F2E41"/>
<path d="M509.76 387.044L582.009 390.73L582.033 390.795C586.361 402.817 587.371 415.782 584.958 428.329L587.17 446.76L598.229 504.265L612.973 577.988C612.973 577.988 632.142 583.149 607.076 591.996C582.009 600.843 587.17 595.682 590.856 589.047C594.542 582.412 572.794 507.582 572.794 507.582L546.253 447.866L520.45 509.794L517.501 578.357C517.501 578.357 525.242 587.573 503.125 591.259C481.007 594.945 482.113 587.941 487.274 582.78C492.435 577.62 496.858 509.057 496.858 509.057L502.019 444.18C502.019 444.18 500.544 406.581 509.76 387.044Z" fill="#2F2E41"/>
<path d="M580.406 302.817L574.597 287.58L555.89 269.155L532.198 267.295L514.786 282.885L509.862 298.393C516.32 328.295 516.188 355.835 507.038 382.516C506.388 384.36 506.148 386.324 506.335 388.271C506.522 390.218 507.132 392.1 508.121 393.787C509.111 395.474 510.456 396.925 512.064 398.038C513.672 399.152 515.503 399.901 517.43 400.234C544.27 404.744 594.248 411.507 590.806 398.632C586.252 381.601 570.409 344.944 576.278 325.561C578.413 318.827 579.757 311.866 580.283 304.821L580.406 302.817Z" fill="#3F3D56"/>
<path d="M540.061 261.349C551.739 261.349 561.205 251.883 561.205 240.205C561.205 228.527 551.739 219.06 540.061 219.06C528.383 219.06 518.916 228.527 518.916 240.205C518.916 251.883 528.383 261.349 540.061 261.349Z" fill="#FFB6B6"/>
<path d="M534.291 260.239L550.408 259.417C552.473 259.311 554.727 259.129 556.23 257.708C557.038 256.83 557.659 255.797 558.057 254.673C559.547 251.211 561.037 247.75 562.489 244.273C564.497 239.463 566.47 234.384 565.957 229.197C565.837 226.829 564.843 224.588 563.168 222.909C562.314 222.1 561.215 221.596 560.044 221.478C558.873 221.359 557.695 221.632 556.696 222.253C556.447 220.612 555.829 219.05 554.888 217.683C553.947 216.317 552.707 215.182 551.263 214.365C548.346 212.754 545.015 212.047 541.696 212.337C536.879 212.647 532.28 214.46 528.546 217.519C527.496 218.488 526.375 219.377 525.192 220.177C524.597 220.575 523.927 220.848 523.223 220.978C522.519 221.108 521.796 221.094 521.098 220.935C520.406 220.75 519.805 220.321 519.405 219.728C519.005 219.134 518.834 218.416 518.923 217.705C517.787 218.554 517.009 219.795 516.74 221.187C516.47 222.578 516.728 224.02 517.464 225.231C516.628 225.582 515.715 225.71 514.814 225.604C513.913 225.497 513.055 225.159 512.323 224.623C511.539 225.012 510.845 225.561 510.285 226.234C509.725 226.906 509.312 227.689 509.072 228.53C508.832 229.372 508.771 230.254 508.892 231.121C509.012 231.988 509.313 232.82 509.774 233.564C510.235 234.308 510.846 234.948 511.568 235.442C512.291 235.936 513.109 236.274 513.969 236.434C514.83 236.593 515.714 236.572 516.566 236.37C517.417 236.168 518.217 235.791 518.915 235.262C519.893 236.632 519.529 238.494 519.401 240.173C519.274 241.852 519.724 243.938 521.342 244.402C523.53 245.029 525.302 242.083 527.578 242.115C528.139 242.16 528.681 242.344 529.154 242.649C529.628 242.954 530.018 243.371 530.292 243.864C530.828 244.853 531.195 245.925 531.378 247.035L534.291 260.147" fill="#2F2E41"/>
<path d="M426.329 293.881C418.278 293.887 410.399 291.551 403.651 287.159L400.255 284.952L404.28 285.399C405.335 285.516 406.471 285.584 407.655 285.601C413.081 285.605 418.393 284.044 422.954 281.105C420.244 280.518 417.734 279.233 415.673 277.378C413.611 275.523 412.07 273.162 411.201 270.529L410.697 268.975L412.3 269.289C413.028 269.433 413.766 269.517 414.508 269.538C411.968 268.231 409.837 266.252 408.347 263.816C406.856 261.379 406.065 258.58 406.058 255.724V254.079L407.49 254.712C408.34 255.19 409.239 255.573 410.173 255.853C407.965 253.375 406.593 250.264 406.253 246.963C405.914 243.661 406.623 240.336 408.28 237.46L408.98 236.253L409.858 237.337C416.253 245.25 425.417 250.437 435.493 251.847C435.769 251.887 436.051 251.866 436.319 251.786C436.586 251.706 436.833 251.569 437.043 251.385C437.257 251.199 437.429 250.969 437.546 250.71C437.664 250.452 437.725 250.172 437.725 249.888C437.701 246.817 438.592 243.809 440.285 241.246C441.978 238.684 444.395 236.684 447.229 235.5C450.063 234.317 453.185 234.004 456.197 234.602C459.209 235.2 461.975 236.681 464.142 238.857C467.108 238.21 469.951 237.093 472.564 235.55L474.769 234.244L473.965 236.677C473.221 238.935 471.972 240.993 470.313 242.695C471.785 242.312 473.224 241.812 474.616 241.2L477.604 239.887L475.804 242.609C473.897 245.498 471.514 248.042 468.757 250.134V251.523C468.757 272.345 452.919 293.881 426.415 293.881L426.329 293.881Z" fill="#6C63FF"/>
<path d="M445.317 279.056C446.564 279.004 447.807 279.227 448.959 279.708C450.111 280.19 451.144 280.918 451.984 281.841C452.824 282.764 453.452 283.861 453.822 285.053C454.193 286.245 454.298 287.504 454.129 288.741L470.98 298.583L467.496 310.282L443.895 296.048C441.836 295.628 440.002 294.466 438.742 292.784C437.482 291.101 436.883 289.015 437.058 286.921C437.233 284.826 438.171 282.869 439.693 281.419C441.215 279.97 443.216 279.129 445.317 279.056Z" fill="#FFB6B6"/>
<path d="M465.157 315.783L452.572 302.164L461.296 289.12L470.699 297.009L480.98 299.469L495.486 304.969C497.506 301.437 513.176 274.783 523.313 279.719C524.518 280.248 525.595 281.032 526.468 282.016C527.342 283.001 527.992 284.163 528.374 285.422C530.15 291.441 525.817 298.712 525.652 298.982L516.856 317.047C516.677 318.112 514.705 329.114 509.149 333.013C508.364 333.587 507.468 333.992 506.518 334.202C505.568 334.412 504.585 334.422 503.631 334.232C486.365 330.967 474.2 325.917 467.992 319.494C466.897 318.379 465.945 317.132 465.157 315.783Z" fill="#3F3D56"/>
<path d="M241.291 263.129C239.354 258.962 242.429 254.311 243.526 249.825C245.573 241.455 239.804 232.392 231.985 229.492C224.165 226.592 215.179 229.016 208.462 234.091C201.878 239.066 197.249 241.41 192.713 248.44C191.192 250.797 189.581 258.116 189.293 260.939C189.005 263.763 190.466 266.998 193.129 267.617C192.874 268.121 192.762 268.685 192.805 269.248C192.848 269.811 193.045 270.351 193.374 270.81C193.703 271.269 194.152 271.629 194.671 271.85C195.19 272.072 195.761 272.147 196.32 272.067C201.417 271.083 210.779 273.789 210.779 273.789C219.507 274.289 228.236 274.789 236.965 275.288C239.201 275.416 241.522 275.533 243.532 274.297C244.088 273.971 244.566 273.529 244.935 273.001C245.304 272.473 245.555 271.872 245.669 271.238C246.18 267.931 242.627 266.002 241.291 263.129Z" fill="#2F2E41"/>
<path d="M247.882 299.588L245.973 312.301L242.944 332.444L242.43 339.907L238.661 394.605L228.279 402.591C222.269 407.214 214.766 409.463 207.203 408.908C199.64 408.353 192.546 405.033 187.274 399.582L174.668 393.513C181.424 386.866 180.168 356.061 180.168 356.061L180.092 295.557L197.18 289.811L202.809 278.73H223.003L228.051 290.509L237.214 294.699L241.387 296.617L247.882 299.588Z" fill="#E6E6E6"/>
<path d="M213.74 273.047C223.169 273.047 230.814 265.403 230.814 255.973C230.814 246.544 223.169 238.9 213.74 238.9C204.311 238.9 196.667 246.544 196.667 255.973C196.667 265.403 204.311 273.047 213.74 273.047Z" fill="#9E616A"/>
<path d="M203.985 250.618C199.475 250.625 195.072 249.236 191.382 246.642L191.259 246.555C191.259 244.375 191.689 242.215 192.523 240.2C193.358 238.185 194.581 236.355 196.123 234.812C197.666 233.27 199.496 232.047 201.511 231.213C203.526 230.378 205.686 229.948 207.866 229.948H214.645C216.812 229.951 218.957 230.381 220.957 231.213C222.957 232.045 224.774 233.264 226.302 234.799C227.831 236.335 229.042 238.156 229.865 240.16C230.689 242.164 231.109 244.311 231.102 246.477C231.088 247.466 230.689 248.411 229.989 249.109C229.289 249.808 228.344 250.206 227.355 250.218L204.375 250.614C204.245 250.617 204.115 250.618 203.985 250.618Z" fill="#2F2E41"/>
<path d="M253.963 334.688L238.497 334.814L237.361 362.341L224.795 377.724C223.267 377.982 221.839 378.656 220.67 379.674C219.501 380.692 218.636 382.013 218.17 383.492C217.705 384.971 217.657 386.549 218.033 388.053C218.408 389.557 219.192 390.928 220.297 392.014C221.403 393.101 222.787 393.861 224.298 394.21C225.808 394.559 227.385 394.484 228.856 393.993C230.326 393.502 231.632 392.614 232.629 391.427C233.626 390.24 234.276 388.801 234.507 387.268L251.817 363.272L253.963 334.688Z" fill="#9E616A"/>
<path d="M172.417 335.51L156.564 328.099L139.253 349.531L119.996 354.401C118.615 353.698 117.066 353.389 115.52 353.51C113.975 353.631 112.493 354.177 111.239 355.087C109.984 355.998 109.005 357.237 108.411 358.669C107.816 360.1 107.629 361.668 107.87 363.2C108.111 364.731 108.77 366.166 109.775 367.346C110.78 368.526 112.092 369.405 113.565 369.887C115.039 370.368 116.617 370.433 118.125 370.074C119.633 369.715 121.012 368.946 122.11 367.853L150.309 358.891L172.417 335.51Z" fill="#9E616A"/>
<path d="M222.283 271.729L228.194 264.355C228.832 263.708 229.248 262.876 229.38 261.977C229.411 261.075 228.562 260.11 227.705 260.393C226.91 260.655 222.329 249.177 221.492 249.179C220.624 249.182 220.341 248.025 220.33 247.157C220.288 243.87 222.961 247.4 223.844 244.233C224.728 241.066 228.172 243.789 231.14 242.374C234.108 240.96 238.141 241.602 239.976 244.331C241.336 246.354 241.286 248.982 241.106 251.413C240.687 257.055 239.838 262.657 238.566 268.169C238.254 269.523 237.789 271.036 236.541 271.648C235.854 271.92 235.114 272.031 234.378 271.971L225.276 271.926" fill="#2F2E41"/>
<path d="M236.465 240.026C241.112 240.026 244.879 236.259 244.879 231.612C244.879 226.965 241.112 223.198 236.465 223.198C231.818 223.198 228.051 226.965 228.051 231.612C228.051 236.259 231.818 240.026 236.465 240.026Z" fill="#2F2E41"/>
<path d="M255.388 334.421C254.479 336.003 252.544 336.634 250.777 337.122C248.387 337.786 247.689 338.459 245.299 339.124C244.349 339.393 243.39 339.663 242.43 339.907C240.856 340.331 239.257 340.659 237.643 340.891C236.288 341.085 234.69 341.085 233.806 340.033C233.22 339.13 232.984 338.044 233.141 336.979C233.486 324.055 233.834 311.131 234.185 298.208L234.917 298.46C235.246 298.243 235.589 298.046 235.943 297.871C237.628 297.013 239.497 296.583 241.387 296.617C242.468 296.626 243.543 296.793 244.576 297.114C246.18 297.623 247.653 298.475 248.894 299.611C250.135 300.748 251.113 302.141 251.761 303.693C252.6 306.037 253 308.516 252.939 311.005C252.948 311.384 252.948 311.762 252.956 312.141C253.006 315.372 251.366 318.603 251.416 321.834C251.378 322.743 251.503 323.652 251.787 324.518C252.123 325.376 252.779 326.091 253.032 326.983C253.284 327.866 252.872 329.078 251.955 329.145C252.603 329.076 253.257 329.188 253.845 329.468C254.434 329.747 254.933 330.184 255.289 330.73C255.644 331.277 255.841 331.91 255.859 332.562C255.876 333.213 255.713 333.856 255.388 334.421Z" fill="#E6E6E6"/>
<path d="M180.162 295.63C181.845 295.732 183.484 296.203 184.964 297.011C186.443 297.819 187.726 298.943 188.721 300.304C189.715 301.665 190.397 303.229 190.718 304.883C191.039 306.538 190.99 308.243 190.576 309.877C189.696 312.607 188.314 315.148 186.5 317.369L180.845 325.24C180.271 325.945 179.829 326.749 179.542 327.611C179.304 328.504 179.398 329.471 179.072 330.336C178.746 331.2 177.697 331.925 176.917 331.429C177.478 331.76 177.938 332.239 178.244 332.814C178.55 333.389 178.691 334.038 178.652 334.688C178.612 335.338 178.394 335.965 178.021 336.499C177.648 337.033 177.134 337.454 176.537 337.714C174.859 338.447 172.932 337.793 171.222 337.139L164.277 334.481C161.807 333.6 159.401 332.551 157.074 331.342C155.872 330.682 154.589 329.731 154.503 328.363C154.436 327.297 155.337 326.479 155.789 325.512C161.445 313.403 169.762 303.768 180.092 295.557L180.162 295.63Z" fill="#E6E6E6"/>
<path d="M188.288 368.523C188.288 361.752 183.298 356.296 177.056 356.296C168.697 355.895 160.193 355.751 151.496 355.751H148.785C140.104 355.751 131.568 355.895 123.225 356.296C117.079 356.296 112.089 361.768 112.089 368.555C111.704 373.93 111.544 379.289 111.56 384.6C111.576 389.911 111.704 395.334 112.073 400.645C112.073 407.432 117.063 412.935 123.209 412.935C131.969 413.337 140.971 413.513 150.116 413.513C159.262 413.513 168.247 413.353 177.04 412.935C183.201 412.935 188.271 407.432 188.271 400.645C188.624 395.27 188.801 389.911 188.785 384.52C188.769 379.129 188.641 373.802 188.287 368.475L188.288 368.523ZM142.832 399.442V369.823L164.685 384.616L142.832 399.442Z" fill="#6C63FF"/>
<path d="M757.599 622.638L1.40084 623C1.03002 622.999 0.674739 622.851 0.412906 622.588C0.151073 622.326 0.00406647 621.97 0.00406647 621.599C0.00406647 621.228 0.151073 620.873 0.412906 620.61C0.674739 620.347 1.03002 620.199 1.40084 620.198L757.599 619.837C757.97 619.838 758.325 619.986 758.587 620.248C758.849 620.511 758.996 620.867 758.996 621.238C758.996 621.608 758.849 621.964 758.587 622.227C758.325 622.489 757.97 622.637 757.599 622.638Z" fill="#1E1E1E"/>
</g>
<defs>
<clipPath id="clip0_11_26">
<rect width="759" height="623" fill="white"/>
</clipPath>
</defs>
</svg>
