<svg width="269" height="82" viewBox="0 0 269 82" fill="none" xmlns="http://www.w3.org/2000/svg">
<rect y="4" width="78" height="78" rx="19" fill="#6C63FF"/>
<path d="M81.5 11.75C81.5 18.2393 76.2395 23.5 69.75 23.5C63.2605 23.5 58 18.2393 58 11.75C58 5.26067 63.2605 0 69.75 0C76.2395 0 81.5 5.26067 81.5 11.75Z" fill="#D5D3FF"/>
<path d="M48.3125 37.875C46.6902 37.875 45.375 36.5598 45.375 34.9375C45.375 33.3152 46.6902 32 48.3125 32H58.1042C59.7264 32 61.0417 33.3152 61.0417 34.9375V44.7292C61.0417 46.3515 59.7264 47.6667 58.1042 47.6667C56.4819 47.6667 55.1667 46.3515 55.1667 44.7292V42.0294L47.284 49.9117C44.6073 52.5884 40.2677 52.5884 37.591 49.9117L31.38 43.7007C30.9973 43.3184 30.3775 43.3184 29.9951 43.7007L21.0146 52.6812C19.8675 53.8284 18.0075 53.8284 16.8604 52.6812C15.7132 51.534 15.7132 49.6744 16.8604 48.5272L25.8408 39.5466C28.5176 36.87 32.8573 36.87 35.534 39.5466L41.745 45.7577C42.1277 46.14 42.7473 46.14 43.13 45.7577L51.0122 37.875H48.3125Z" fill="#D5D3FF"/>
<path d="M130.972 47.528H123.636L122.46 51H117.448L124.56 31.344H130.104L137.216 51H132.148L130.972 47.528ZM129.74 43.832L127.304 36.636L124.896 43.832H129.74ZM144.169 37.588C144.635 36.86 145.279 36.272 146.101 35.824C146.922 35.376 147.883 35.152 148.985 35.152C150.273 35.152 151.439 35.4787 152.485 36.132C153.53 36.7853 154.351 37.7187 154.949 38.932C155.565 40.1453 155.873 41.5547 155.873 43.16C155.873 44.7653 155.565 46.184 154.949 47.416C154.351 48.6293 153.53 49.572 152.485 50.244C151.439 50.8973 150.273 51.224 148.985 51.224C147.902 51.224 146.941 51 146.101 50.552C145.279 50.104 144.635 49.5253 144.169 48.816V58.448H139.381V35.376H144.169V37.588ZM151.001 43.16C151.001 41.9653 150.665 41.032 149.993 40.36C149.339 39.6693 148.527 39.324 147.557 39.324C146.605 39.324 145.793 39.6693 145.121 40.36C144.467 41.0507 144.141 41.9933 144.141 43.188C144.141 44.3827 144.467 45.3253 145.121 46.016C145.793 46.7067 146.605 47.052 147.557 47.052C148.509 47.052 149.321 46.7067 149.993 46.016C150.665 45.3067 151.001 44.3547 151.001 43.16ZM163.172 37.588C163.639 36.86 164.283 36.272 165.104 35.824C165.926 35.376 166.887 35.152 167.988 35.152C169.276 35.152 170.443 35.4787 171.488 36.132C172.534 36.7853 173.355 37.7187 173.952 38.932C174.568 40.1453 174.876 41.5547 174.876 43.16C174.876 44.7653 174.568 46.184 173.952 47.416C173.355 48.6293 172.534 49.572 171.488 50.244C170.443 50.8973 169.276 51.224 167.988 51.224C166.906 51.224 165.944 51 165.104 50.552C164.283 50.104 163.639 49.5253 163.172 48.816V58.448H158.384V35.376H163.172V37.588ZM170.004 43.16C170.004 41.9653 169.668 41.032 168.996 40.36C168.343 39.6693 167.531 39.324 166.56 39.324C165.608 39.324 164.796 39.6693 164.124 40.36C163.471 41.0507 163.144 41.9933 163.144 43.188C163.144 44.3827 163.471 45.3253 164.124 46.016C164.796 46.7067 165.608 47.052 166.56 47.052C167.512 47.052 168.324 46.7067 168.996 46.016C169.668 45.3067 170.004 44.3547 170.004 43.16ZM200.906 51H196.118L188.11 38.876V51H183.322V31.344H188.11L196.118 43.524V31.344H200.906V51ZM203.425 43.16C203.425 41.5547 203.723 40.1453 204.321 38.932C204.937 37.7187 205.767 36.7853 206.813 36.132C207.858 35.4787 209.025 35.152 210.313 35.152C211.414 35.152 212.375 35.376 213.197 35.824C214.037 36.272 214.681 36.86 215.129 37.588V35.376H219.917V51H215.129V48.788C214.662 49.516 214.009 50.104 213.169 50.552C212.347 51 211.386 51.224 210.285 51.224C209.015 51.224 207.858 50.8973 206.813 50.244C205.767 49.572 204.937 48.6293 204.321 47.416C203.723 46.184 203.425 44.7653 203.425 43.16ZM215.129 43.188C215.129 41.9933 214.793 41.0507 214.121 40.36C213.467 39.6693 212.665 39.324 211.713 39.324C210.761 39.324 209.949 39.6693 209.277 40.36C208.623 41.032 208.297 41.9653 208.297 43.16C208.297 44.3547 208.623 45.3067 209.277 46.016C209.949 46.7067 210.761 47.052 211.713 47.052C212.665 47.052 213.467 46.7067 214.121 46.016C214.793 45.3253 215.129 44.3827 215.129 43.188ZM243.317 35.208C245.258 35.208 246.798 35.796 247.937 36.972C249.094 38.148 249.673 39.7813 249.673 41.872V51H244.913V42.516C244.913 41.508 244.642 40.7333 244.101 40.192C243.578 39.632 242.85 39.352 241.917 39.352C240.983 39.352 240.246 39.632 239.705 40.192C239.182 40.7333 238.921 41.508 238.921 42.516V51H234.161V42.516C234.161 41.508 233.89 40.7333 233.349 40.192C232.826 39.632 232.098 39.352 231.165 39.352C230.231 39.352 229.494 39.632 228.953 40.192C228.43 40.7333 228.169 41.508 228.169 42.516V51H223.381V35.376H228.169V37.336C228.654 36.6827 229.289 36.1693 230.073 35.796C230.857 35.404 231.743 35.208 232.733 35.208C233.909 35.208 234.954 35.46 235.869 35.964C236.802 36.468 237.53 37.1867 238.053 38.12C238.594 37.2613 239.331 36.5613 240.265 36.02C241.198 35.4787 242.215 35.208 243.317 35.208ZM267.749 42.936C267.749 43.384 267.721 43.8507 267.665 44.336H256.829C256.904 45.3067 257.212 46.0533 257.753 46.576C258.313 47.08 258.994 47.332 259.797 47.332C260.992 47.332 261.822 46.828 262.289 45.82H267.385C267.124 46.8467 266.648 47.7707 265.957 48.592C265.285 49.4133 264.436 50.0573 263.409 50.524C262.382 50.9907 261.234 51.224 259.965 51.224C258.434 51.224 257.072 50.8973 255.877 50.244C254.682 49.5907 253.749 48.6573 253.077 47.444C252.405 46.2307 252.069 44.812 252.069 43.188C252.069 41.564 252.396 40.1453 253.049 38.932C253.721 37.7187 254.654 36.7853 255.849 36.132C257.044 35.4787 258.416 35.152 259.965 35.152C261.477 35.152 262.821 35.4693 263.997 36.104C265.173 36.7387 266.088 37.644 266.741 38.82C267.413 39.996 267.749 41.368 267.749 42.936ZM262.849 41.676C262.849 40.8547 262.569 40.2013 262.009 39.716C261.449 39.2307 260.749 38.988 259.909 38.988C259.106 38.988 258.425 39.2213 257.865 39.688C257.324 40.1547 256.988 40.8173 256.857 41.676H262.849Z" fill="black"/>
</svg>
