<svg width="264" height="82" viewBox="0 0 264 82" fill="none" xmlns="http://www.w3.org/2000/svg">
<rect y="4" width="78" height="78" rx="19" fill="#6C63FF"/>
<path d="M81.5 11.75C81.5 18.2393 76.2395 23.5 69.75 23.5C63.2605 23.5 58 18.2393 58 11.75C58 5.26067 63.2605 0 69.75 0C76.2395 0 81.5 5.26067 81.5 11.75Z" fill="#D5D3FF"/>
<path d="M48.3125 37.875C46.6902 37.875 45.375 36.5598 45.375 34.9375C45.375 33.3152 46.6902 32 48.3125 32H58.1042C59.7264 32 61.0417 33.3152 61.0417 34.9375V44.7292C61.0417 46.3515 59.7264 47.6667 58.1042 47.6667C56.4819 47.6667 55.1667 46.3515 55.1667 44.7292V42.0294L47.284 49.9117C44.6073 52.5884 40.2677 52.5884 37.591 49.9117L31.38 43.7007C30.9973 43.3184 30.3775 43.3184 29.9951 43.7007L21.0146 52.6812C19.8675 53.8284 18.0075 53.8284 16.8604 52.6812C15.7132 51.534 15.7132 49.6744 16.8604 48.5272L25.8408 39.5466C28.5176 36.87 32.8573 36.87 35.534 39.5466L41.745 45.7577C42.1277 46.14 42.7473 46.14 43.13 45.7577L51.0122 37.875H48.3125Z" fill="#D5D3FF"/>
<path d="M115.848 51.196C114.411 51.196 113.123 50.9627 111.984 50.496C110.845 50.0293 109.931 49.3387 109.24 48.424C108.568 47.5093 108.213 46.408 108.176 45.12H113.272C113.347 45.848 113.599 46.408 114.028 46.8C114.457 47.1733 115.017 47.36 115.708 47.36C116.417 47.36 116.977 47.2013 117.388 46.884C117.799 46.548 118.004 46.0907 118.004 45.512C118.004 45.0267 117.836 44.6253 117.5 44.308C117.183 43.9907 116.781 43.7293 116.296 43.524C115.829 43.3187 115.157 43.0853 114.28 42.824C113.011 42.432 111.975 42.04 111.172 41.648C110.369 41.256 109.679 40.6773 109.1 39.912C108.521 39.1467 108.232 38.148 108.232 36.916C108.232 35.0867 108.895 33.6587 110.22 32.632C111.545 31.5867 113.272 31.064 115.4 31.064C117.565 31.064 119.311 31.5867 120.636 32.632C121.961 33.6587 122.671 35.096 122.764 36.944H117.584C117.547 36.3093 117.313 35.8147 116.884 35.46C116.455 35.0867 115.904 34.9 115.232 34.9C114.653 34.9 114.187 35.0587 113.832 35.376C113.477 35.6747 113.3 36.1133 113.3 36.692C113.3 37.3267 113.599 37.8213 114.196 38.176C114.793 38.5307 115.727 38.9133 116.996 39.324C118.265 39.7533 119.292 40.164 120.076 40.556C120.879 40.948 121.569 41.5173 122.148 42.264C122.727 43.0107 123.016 43.972 123.016 45.148C123.016 46.268 122.727 47.2853 122.148 48.2C121.588 49.1147 120.767 49.8427 119.684 50.384C118.601 50.9253 117.323 51.196 115.848 51.196ZM133.075 51.224C131.544 51.224 130.163 50.8973 128.931 50.244C127.717 49.5907 126.756 48.6573 126.047 47.444C125.356 46.2307 125.011 44.812 125.011 43.188C125.011 41.5827 125.365 40.1733 126.075 38.96C126.784 37.728 127.755 36.7853 128.987 36.132C130.219 35.4787 131.6 35.152 133.131 35.152C134.661 35.152 136.043 35.4787 137.275 36.132C138.507 36.7853 139.477 37.728 140.187 38.96C140.896 40.1733 141.251 41.5827 141.251 43.188C141.251 44.7933 140.887 46.212 140.159 47.444C139.449 48.6573 138.469 49.5907 137.219 50.244C135.987 50.8973 134.605 51.224 133.075 51.224ZM133.075 47.08C133.989 47.08 134.764 46.744 135.399 46.072C136.052 45.4 136.379 44.4387 136.379 43.188C136.379 41.9373 136.061 40.976 135.427 40.304C134.811 39.632 134.045 39.296 133.131 39.296C132.197 39.296 131.423 39.632 130.807 40.304C130.191 40.9573 129.883 41.9187 129.883 43.188C129.883 44.4387 130.181 45.4 130.779 46.072C131.395 46.744 132.16 47.08 133.075 47.08ZM142.839 43.188C142.839 41.564 143.165 40.1453 143.819 38.932C144.491 37.7187 145.415 36.7853 146.591 36.132C147.785 35.4787 149.148 35.152 150.679 35.152C152.639 35.152 154.272 35.6653 155.579 36.692C156.904 37.7187 157.772 39.1653 158.183 41.032H153.087C152.657 39.8373 151.827 39.24 150.595 39.24C149.717 39.24 149.017 39.5853 148.495 40.276C147.972 40.948 147.711 41.9187 147.711 43.188C147.711 44.4573 147.972 45.4373 148.495 46.128C149.017 46.8 149.717 47.136 150.595 47.136C151.827 47.136 152.657 46.5387 153.087 45.344H158.183C157.772 47.1733 156.904 48.6107 155.579 49.656C154.253 50.7013 152.62 51.224 150.679 51.224C149.148 51.224 147.785 50.8973 146.591 50.244C145.415 49.5907 144.491 48.6573 143.819 47.444C143.165 46.2307 142.839 44.812 142.839 43.188ZM163.152 33.752C162.312 33.752 161.621 33.5093 161.08 33.024C160.557 32.52 160.296 31.904 160.296 31.176C160.296 30.4293 160.557 29.8133 161.08 29.328C161.621 28.824 162.312 28.572 163.152 28.572C163.973 28.572 164.645 28.824 165.168 29.328C165.709 29.8133 165.98 30.4293 165.98 31.176C165.98 31.904 165.709 32.52 165.168 33.024C164.645 33.5093 163.973 33.752 163.152 33.752ZM165.532 35.376V51H160.744V35.376H165.532ZM176.114 51.224C174.583 51.224 173.202 50.8973 171.97 50.244C170.756 49.5907 169.795 48.6573 169.086 47.444C168.395 46.2307 168.05 44.812 168.05 43.188C168.05 41.5827 168.404 40.1733 169.114 38.96C169.823 37.728 170.794 36.7853 172.026 36.132C173.258 35.4787 174.639 35.152 176.17 35.152C177.7 35.152 179.082 35.4787 180.314 36.132C181.546 36.7853 182.516 37.728 183.226 38.96C183.935 40.1733 184.29 41.5827 184.29 43.188C184.29 44.7933 183.926 46.212 183.198 47.444C182.488 48.6573 181.508 49.5907 180.258 50.244C179.026 50.8973 177.644 51.224 176.114 51.224ZM176.114 47.08C177.028 47.08 177.803 46.744 178.438 46.072C179.091 45.4 179.418 44.4387 179.418 43.188C179.418 41.9373 179.1 40.976 178.466 40.304C177.85 39.632 177.084 39.296 176.17 39.296C175.236 39.296 174.462 39.632 173.846 40.304C173.23 40.9573 172.922 41.9187 172.922 43.188C172.922 44.4387 173.22 45.4 173.818 46.072C174.434 46.744 175.199 47.08 176.114 47.08ZM191.618 30.28V51H186.83V30.28H191.618ZM211.048 35.376L201.248 58.42H196.096L199.68 50.468L193.324 35.376H198.672L202.284 45.148L205.868 35.376H211.048ZM221.487 46.94V51H219.051C217.315 51 215.962 50.58 214.991 49.74C214.02 48.8813 213.535 47.4907 213.535 45.568V39.352H211.631V35.376H213.535V31.568H218.323V35.376H221.459V39.352H218.323V45.624C218.323 46.0907 218.435 46.4267 218.659 46.632C218.883 46.8373 219.256 46.94 219.779 46.94H221.487ZM226.562 33.752C225.722 33.752 225.031 33.5093 224.49 33.024C223.967 32.52 223.706 31.904 223.706 31.176C223.706 30.4293 223.967 29.8133 224.49 29.328C225.031 28.824 225.722 28.572 226.562 28.572C227.383 28.572 228.055 28.824 228.578 29.328C229.119 29.8133 229.39 30.4293 229.39 31.176C229.39 31.904 229.119 32.52 228.578 33.024C228.055 33.5093 227.383 33.752 226.562 33.752ZM228.942 35.376V51H224.154V35.376H228.942ZM231.46 43.188C231.46 41.564 231.786 40.1453 232.44 38.932C233.112 37.7187 234.036 36.7853 235.212 36.132C236.406 35.4787 237.769 35.152 239.3 35.152C241.26 35.152 242.893 35.6653 244.2 36.692C245.525 37.7187 246.393 39.1653 246.804 41.032H241.708C241.278 39.8373 240.448 39.24 239.216 39.24C238.338 39.24 237.638 39.5853 237.116 40.276C236.593 40.948 236.332 41.9187 236.332 43.188C236.332 44.4573 236.593 45.4373 237.116 46.128C237.638 46.8 238.338 47.136 239.216 47.136C240.448 47.136 241.278 46.5387 241.708 45.344H246.804C246.393 47.1733 245.525 48.6107 244.2 49.656C242.874 50.7013 241.241 51.224 239.3 51.224C237.769 51.224 236.406 50.8973 235.212 50.244C234.036 49.5907 233.112 48.6573 232.44 47.444C231.786 46.2307 231.46 44.812 231.46 43.188ZM255.721 51.224C254.358 51.224 253.145 50.9907 252.081 50.524C251.017 50.0573 250.177 49.4227 249.561 48.62C248.945 47.7987 248.6 46.884 248.525 45.876H253.257C253.313 46.4173 253.565 46.856 254.013 47.192C254.461 47.528 255.012 47.696 255.665 47.696C256.262 47.696 256.72 47.584 257.037 47.36C257.373 47.1173 257.541 46.8093 257.541 46.436C257.541 45.988 257.308 45.6613 256.841 45.456C256.374 45.232 255.618 44.9893 254.573 44.728C253.453 44.4667 252.52 44.196 251.773 43.916C251.026 43.6173 250.382 43.16 249.841 42.544C249.3 41.9093 249.029 41.06 249.029 39.996C249.029 39.1 249.272 38.288 249.757 37.56C250.261 36.8133 250.989 36.2253 251.941 35.796C252.912 35.3667 254.06 35.152 255.385 35.152C257.345 35.152 258.885 35.6373 260.005 36.608C261.144 37.5787 261.797 38.8667 261.965 40.472H257.541C257.466 39.9307 257.224 39.5013 256.813 39.184C256.421 38.8667 255.898 38.708 255.245 38.708C254.685 38.708 254.256 38.82 253.957 39.044C253.658 39.2493 253.509 39.5387 253.509 39.912C253.509 40.36 253.742 40.696 254.209 40.92C254.694 41.144 255.441 41.368 256.449 41.592C257.606 41.8907 258.549 42.1893 259.277 42.488C260.005 42.768 260.64 43.2347 261.181 43.888C261.741 44.5227 262.03 45.3813 262.049 46.464C262.049 47.3787 261.788 48.2 261.265 48.928C260.761 49.6373 260.024 50.1973 259.053 50.608C258.101 51.0187 256.99 51.224 255.721 51.224Z" fill="black"/>
</svg>
