<svg width="238" height="62" viewBox="0 0 238 62" fill="none" xmlns="http://www.w3.org/2000/svg">
<rect y="3.02441" width="58.9756" height="58.9756" rx="19" fill="#6C63FF"/>
<path d="M61.6219 8.88415C61.6219 13.7907 57.6445 17.7683 52.7378 17.7683C47.8311 17.7683 43.8536 13.7907 43.8536 8.88415C43.8536 3.97758 47.8311 0 52.7378 0C57.6445 0 61.6219 3.97758 61.6219 8.88415Z" fill="#D5D3FF"/>
<path d="M36.5289 28.6371C35.3023 28.6371 34.3079 27.6427 34.3079 26.4161C34.3079 25.1895 35.3023 24.1951 36.5289 24.1951H43.9324C45.159 24.1951 46.1534 25.1895 46.1534 26.4161V33.8196C46.1534 35.0462 45.159 36.0406 43.9324 36.0406C42.7058 36.0406 41.7113 35.0462 41.7113 33.8196V31.7783L35.7513 37.7381C33.7275 39.7619 30.4462 39.7619 28.4224 37.7381L23.7263 33.0419C23.437 32.7529 22.9683 32.7529 22.6792 33.0419L15.8891 39.8321C15.0217 40.6994 13.6154 40.6994 12.7481 39.8321C11.8807 38.9647 11.8807 37.5586 12.7481 36.6912L19.5382 29.9011C21.562 27.8773 24.8433 27.8773 26.8671 29.9011L31.5633 34.5972C31.8526 34.8863 32.3211 34.8863 32.6104 34.5972L38.5702 28.6371H36.5289Z" fill="#D5D3FF"/>
<path d="M89.848 42.196C88.4107 42.196 87.1227 41.9627 85.984 41.496C84.8453 41.0293 83.9307 40.3387 83.24 39.424C82.568 38.5093 82.2133 37.408 82.176 36.12H87.272C87.3467 36.848 87.5987 37.408 88.028 37.8C88.4573 38.1733 89.0173 38.36 89.708 38.36C90.4173 38.36 90.9773 38.2013 91.388 37.884C91.7987 37.548 92.004 37.0907 92.004 36.512C92.004 36.0267 91.836 35.6253 91.5 35.308C91.1827 34.9907 90.7813 34.7293 90.296 34.524C89.8293 34.3187 89.1573 34.0853 88.28 33.824C87.0107 33.432 85.9747 33.04 85.172 32.648C84.3693 32.256 83.6787 31.6773 83.1 30.912C82.5213 30.1467 82.232 29.148 82.232 27.916C82.232 26.0867 82.8947 24.6587 84.22 23.632C85.5453 22.5867 87.272 22.064 89.4 22.064C91.5653 22.064 93.3107 22.5867 94.636 23.632C95.9613 24.6587 96.6707 26.096 96.764 27.944H91.584C91.5467 27.3093 91.3133 26.8147 90.884 26.46C90.4547 26.0867 89.904 25.9 89.232 25.9C88.6533 25.9 88.1867 26.0587 87.832 26.376C87.4773 26.6747 87.3 27.1133 87.3 27.692C87.3 28.3267 87.5987 28.8213 88.196 29.176C88.7933 29.5307 89.7267 29.9133 90.996 30.324C92.2653 30.7533 93.292 31.164 94.076 31.556C94.8787 31.948 95.5693 32.5173 96.148 33.264C96.7267 34.0107 97.016 34.972 97.016 36.148C97.016 37.268 96.7267 38.2853 96.148 39.2C95.588 40.1147 94.7667 40.8427 93.684 41.384C92.6013 41.9253 91.3227 42.196 89.848 42.196ZM107.075 42.224C105.544 42.224 104.163 41.8973 102.931 41.244C101.717 40.5907 100.756 39.6573 100.047 38.444C99.3559 37.2307 99.0106 35.812 99.0106 34.188C99.0106 32.5827 99.3652 31.1733 100.075 29.96C100.784 28.728 101.755 27.7853 102.987 27.132C104.219 26.4787 105.6 26.152 107.131 26.152C108.661 26.152 110.043 26.4787 111.275 27.132C112.507 27.7853 113.477 28.728 114.187 29.96C114.896 31.1733 115.251 32.5827 115.251 34.188C115.251 35.7933 114.887 37.212 114.159 38.444C113.449 39.6573 112.469 40.5907 111.219 41.244C109.987 41.8973 108.605 42.224 107.075 42.224ZM107.075 38.08C107.989 38.08 108.764 37.744 109.399 37.072C110.052 36.4 110.379 35.4387 110.379 34.188C110.379 32.9373 110.061 31.976 109.427 31.304C108.811 30.632 108.045 30.296 107.131 30.296C106.197 30.296 105.423 30.632 104.807 31.304C104.191 31.9573 103.883 32.9187 103.883 34.188C103.883 35.4387 104.181 36.4 104.779 37.072C105.395 37.744 106.16 38.08 107.075 38.08ZM116.839 34.188C116.839 32.564 117.165 31.1453 117.819 29.932C118.491 28.7187 119.415 27.7853 120.591 27.132C121.785 26.4787 123.148 26.152 124.679 26.152C126.639 26.152 128.272 26.6653 129.579 27.692C130.904 28.7187 131.772 30.1653 132.183 32.032H127.087C126.657 30.8373 125.827 30.24 124.595 30.24C123.717 30.24 123.017 30.5853 122.495 31.276C121.972 31.948 121.711 32.9187 121.711 34.188C121.711 35.4573 121.972 36.4373 122.495 37.128C123.017 37.8 123.717 38.136 124.595 38.136C125.827 38.136 126.657 37.5387 127.087 36.344H132.183C131.772 38.1733 130.904 39.6107 129.579 40.656C128.253 41.7013 126.62 42.224 124.679 42.224C123.148 42.224 121.785 41.8973 120.591 41.244C119.415 40.5907 118.491 39.6573 117.819 38.444C117.165 37.2307 116.839 35.812 116.839 34.188ZM137.152 24.752C136.312 24.752 135.621 24.5093 135.08 24.024C134.557 23.52 134.296 22.904 134.296 22.176C134.296 21.4293 134.557 20.8133 135.08 20.328C135.621 19.824 136.312 19.572 137.152 19.572C137.973 19.572 138.645 19.824 139.168 20.328C139.709 20.8133 139.98 21.4293 139.98 22.176C139.98 22.904 139.709 23.52 139.168 24.024C138.645 24.5093 137.973 24.752 137.152 24.752ZM139.532 26.376V42H134.744V26.376H139.532ZM150.114 42.224C148.583 42.224 147.202 41.8973 145.97 41.244C144.756 40.5907 143.795 39.6573 143.086 38.444C142.395 37.2307 142.05 35.812 142.05 34.188C142.05 32.5827 142.404 31.1733 143.114 29.96C143.823 28.728 144.794 27.7853 146.026 27.132C147.258 26.4787 148.639 26.152 150.17 26.152C151.7 26.152 153.082 26.4787 154.314 27.132C155.546 27.7853 156.516 28.728 157.226 29.96C157.935 31.1733 158.29 32.5827 158.29 34.188C158.29 35.7933 157.926 37.212 157.198 38.444C156.488 39.6573 155.508 40.5907 154.258 41.244C153.026 41.8973 151.644 42.224 150.114 42.224ZM150.114 38.08C151.028 38.08 151.803 37.744 152.438 37.072C153.091 36.4 153.418 35.4387 153.418 34.188C153.418 32.9373 153.1 31.976 152.466 31.304C151.85 30.632 151.084 30.296 150.17 30.296C149.236 30.296 148.462 30.632 147.846 31.304C147.23 31.9573 146.922 32.9187 146.922 34.188C146.922 35.4387 147.22 36.4 147.818 37.072C148.434 37.744 149.199 38.08 150.114 38.08ZM165.618 21.28V42H160.83V21.28H165.618ZM185.048 26.376L175.248 49.42H170.096L173.68 41.468L167.324 26.376H172.672L176.284 36.148L179.868 26.376H185.048ZM195.487 37.94V42H193.051C191.315 42 189.962 41.58 188.991 40.74C188.02 39.8813 187.535 38.4907 187.535 36.568V30.352H185.631V26.376H187.535V22.568H192.323V26.376H195.459V30.352H192.323V36.624C192.323 37.0907 192.435 37.4267 192.659 37.632C192.883 37.8373 193.256 37.94 193.779 37.94H195.487ZM200.562 24.752C199.722 24.752 199.031 24.5093 198.49 24.024C197.967 23.52 197.706 22.904 197.706 22.176C197.706 21.4293 197.967 20.8133 198.49 20.328C199.031 19.824 199.722 19.572 200.562 19.572C201.383 19.572 202.055 19.824 202.578 20.328C203.119 20.8133 203.39 21.4293 203.39 22.176C203.39 22.904 203.119 23.52 202.578 24.024C202.055 24.5093 201.383 24.752 200.562 24.752ZM202.942 26.376V42H198.154V26.376H202.942ZM205.46 34.188C205.46 32.564 205.786 31.1453 206.44 29.932C207.112 28.7187 208.036 27.7853 209.212 27.132C210.406 26.4787 211.769 26.152 213.3 26.152C215.26 26.152 216.893 26.6653 218.2 27.692C219.525 28.7187 220.393 30.1653 220.804 32.032H215.708C215.278 30.8373 214.448 30.24 213.216 30.24C212.338 30.24 211.638 30.5853 211.116 31.276C210.593 31.948 210.332 32.9187 210.332 34.188C210.332 35.4573 210.593 36.4373 211.116 37.128C211.638 37.8 212.338 38.136 213.216 38.136C214.448 38.136 215.278 37.5387 215.708 36.344H220.804C220.393 38.1733 219.525 39.6107 218.2 40.656C216.874 41.7013 215.241 42.224 213.3 42.224C211.769 42.224 210.406 41.8973 209.212 41.244C208.036 40.5907 207.112 39.6573 206.44 38.444C205.786 37.2307 205.46 35.812 205.46 34.188ZM229.721 42.224C228.358 42.224 227.145 41.9907 226.081 41.524C225.017 41.0573 224.177 40.4227 223.561 39.62C222.945 38.7987 222.6 37.884 222.525 36.876H227.257C227.313 37.4173 227.565 37.856 228.013 38.192C228.461 38.528 229.012 38.696 229.665 38.696C230.262 38.696 230.72 38.584 231.037 38.36C231.373 38.1173 231.541 37.8093 231.541 37.436C231.541 36.988 231.308 36.6613 230.841 36.456C230.374 36.232 229.618 35.9893 228.573 35.728C227.453 35.4667 226.52 35.196 225.773 34.916C225.026 34.6173 224.382 34.16 223.841 33.544C223.3 32.9093 223.029 32.06 223.029 30.996C223.029 30.1 223.272 29.288 223.757 28.56C224.261 27.8133 224.989 27.2253 225.941 26.796C226.912 26.3667 228.06 26.152 229.385 26.152C231.345 26.152 232.885 26.6373 234.005 27.608C235.144 28.5787 235.797 29.8667 235.965 31.472H231.541C231.466 30.9307 231.224 30.5013 230.813 30.184C230.421 29.8667 229.898 29.708 229.245 29.708C228.685 29.708 228.256 29.82 227.957 30.044C227.658 30.2493 227.509 30.5387 227.509 30.912C227.509 31.36 227.742 31.696 228.209 31.92C228.694 32.144 229.441 32.368 230.449 32.592C231.606 32.8907 232.549 33.1893 233.277 33.488C234.005 33.768 234.64 34.2347 235.181 34.888C235.741 35.5227 236.03 36.3813 236.049 37.464C236.049 38.3787 235.788 39.2 235.265 39.928C234.761 40.6373 234.024 41.1973 233.053 41.608C232.101 42.0187 230.99 42.224 229.721 42.224Z" fill="white"/>
</svg>
