<svg width="36" height="36" viewBox="0 0 36 36" fill="none" xmlns="http://www.w3.org/2000/svg">
<path d="M21.1801 4.80099H20.1801V4.85087L20.1851 4.9005L21.1801 4.80099ZM21.1801 4.80097H22.1801V4.7511L22.1751 4.70147L21.1801 4.80097ZM21.2539 5.53891L20.2589 5.63841V5.63842L21.2539 5.53891ZM22.0517 8.2182L22.4344 7.29432V7.29432L22.0517 8.2182ZM24.5105 6.88782L25.1437 7.66177L24.5105 6.88782ZM25.0844 6.41823L24.4511 5.64427V5.64427L25.0844 6.41823ZM27.7651 6.55193L27.058 7.25904V7.25904L27.7651 6.55193ZM29.448 8.23488L28.7409 8.94199L28.7484 8.94951L28.7561 8.95687L29.448 8.23488ZM29.448 8.23489L30.1551 7.52779L30.1476 7.52026L30.1399 7.5129L29.448 8.23489ZM30.3796 9.5321L31.3784 9.48228V9.48228L30.3796 9.5321ZM29.5817 10.9156L28.8078 10.2823V10.2823L29.5817 10.9156ZM29.1121 11.4896L28.3381 10.8563L29.1121 11.4896ZM30.461 14.7461L30.5605 13.7511L30.461 14.7461ZM31.199 14.8199L31.0995 15.8149L31.199 14.8199ZM32.7415 15.234L33.4829 14.563L33.4829 14.563L32.7415 15.234ZM32.7415 20.766L33.4829 21.437L33.4829 21.437L32.7415 20.766ZM31.199 21.1801V22.1801H31.2489L31.2985 22.1751L31.199 21.1801ZM31.199 21.1801V20.1801H31.1491L31.0995 20.1851L31.199 21.1801ZM30.4616 21.2538L30.3621 20.2588H30.3621L30.4616 21.2538ZM27.7823 22.0517L26.8584 21.669V21.669L27.7823 22.0517ZM29.1127 24.5104L29.8866 23.8772L29.1127 24.5104ZM29.5818 25.0838L28.8078 25.717V25.717L29.5818 25.0838ZM30.3797 26.4672L31.3784 26.5171L30.3797 26.4672ZM26.4679 30.379L26.5177 31.3777H26.5177L26.4679 30.379ZM25.0845 29.5811L24.4512 30.3551L24.4512 30.3551L25.0845 29.5811ZM24.5105 29.1115L25.1438 28.3376H25.1438L24.5105 29.1115ZM21.254 30.4604L20.2589 30.3609V30.3609L21.254 30.4604ZM21.1801 31.199L20.1851 31.0995L20.1801 31.1491V31.199H21.1801ZM21.1801 31.199L22.1751 31.2985L22.1801 31.2489V31.199H21.1801ZM20.766 32.7415L21.437 33.4829L21.437 33.4829L20.766 32.7415ZM15.234 32.7415L14.563 33.4829L14.563 33.4829L15.234 32.7415ZM14.8199 31.199L13.8249 31.2985L14.8199 31.199ZM14.7461 30.461L15.7411 30.3615L14.7461 30.461ZM11.4896 29.1121L12.1228 29.8861H12.1228L11.4896 29.1121ZM10.9155 29.5818L10.2823 28.8078L10.2823 28.8078L10.9155 29.5818ZM9.53204 30.3797L9.48222 31.3784H9.48222L9.53204 30.3797ZM8.23482 29.4481L7.52771 30.1552H7.52771L8.23482 29.4481ZM6.55187 27.7651L5.84476 28.4722H5.84476L6.55187 27.7651ZM6.41817 25.0844L7.19213 25.7177H7.19213L6.41817 25.0844ZM6.88781 24.5104L6.11385 23.8772L6.11385 23.8772L6.88781 24.5104ZM5.5389 21.2539L5.4394 22.2489H5.4394L5.5389 21.2539ZM4.80099 21.1801L4.9005 20.1851L4.85087 20.1801H4.80099V21.1801ZM4.80098 21.1801L4.70147 22.1751L4.7511 22.1801H4.80098V21.1801ZM3.25855 20.766L4 20.095H4L3.25855 20.766ZM3 19.19H2H3ZM3 16.81H4H3ZM3.25855 15.234L2.5171 14.563L2.51709 14.563L3.25855 15.234ZM4.80099 14.8199L4.70149 13.8249H4.70149L4.80099 14.8199ZM5.53947 14.7461L5.43997 13.751L5.53947 14.7461ZM6.88838 11.4895L6.11442 12.1227L6.88838 11.4895ZM6.41824 10.9149L7.1922 10.2816L6.41824 10.9149ZM6.55194 8.2342L5.84483 7.52709L6.55194 8.2342ZM8.23489 6.55125L7.52778 5.84414V5.84414L8.23489 6.55125ZM10.9156 6.41755L10.2823 7.19151L10.2823 7.19151L10.9156 6.41755ZM11.4896 6.88722L12.1229 6.11327V6.11327L11.4896 6.88722ZM13.9483 8.21761L14.331 9.14149L14.331 9.14148L13.9483 8.21761ZM14.7462 5.53832L13.7511 5.43881V5.43881L14.7462 5.53832ZM14.8199 4.80099L15.8149 4.9005V4.90049L14.8199 4.80099ZM15.234 3.25855L14.563 2.51709L14.563 2.5171L15.234 3.25855ZM20.766 3.25855L20.095 4V4L20.766 3.25855ZM22.1801 4.80099V4.80097H20.1801V4.80099H22.1801ZM22.2489 5.43941L22.1751 4.70149L20.1851 4.9005L20.2589 5.63841L22.2489 5.43941ZM22.4344 7.29432C22.6083 7.36634 22.5638 7.50796 22.4766 7.16129C22.389 6.8132 22.334 6.28998 22.2489 5.43941L20.2589 5.63842C20.3372 6.42138 20.4047 7.12331 20.537 7.64923C20.6697 8.17658 20.9424 8.84107 21.6691 9.14208L22.4344 7.29432ZM23.8772 6.11386C23.2156 6.65516 22.8068 6.98625 22.4987 7.17046C22.1919 7.35392 22.2605 7.22229 22.4344 7.29432L21.6691 9.14208C22.3958 9.44309 23.0585 9.16605 23.5252 8.88697C23.9906 8.60864 24.5347 8.16005 25.1437 7.66177L23.8772 6.11386ZM24.4511 5.64427L23.8772 6.11386L25.1437 7.66177L25.7176 7.19219L24.4511 5.64427ZM26.5177 4.6216C26.0429 4.59792 25.6585 4.7684 25.3524 4.95928C25.0705 5.13505 24.7633 5.38885 24.4511 5.64427L25.7176 7.19219C26.0712 6.9029 26.2634 6.74816 26.4106 6.65638C26.5336 6.5797 26.508 6.6236 26.418 6.61912L26.5177 4.6216ZM28.4722 5.84482C28.187 5.5596 27.9066 5.27651 27.6436 5.07355C27.358 4.85316 26.9924 4.64528 26.5177 4.6216L26.418 6.61912C26.3281 6.61463 26.307 6.56841 26.4218 6.65694C26.5591 6.76291 26.7349 6.93601 27.058 7.25904L28.4722 5.84482ZM30.1551 7.52777L28.4722 5.84482L27.058 7.25904L28.7409 8.94199L30.1551 7.52777ZM30.1399 7.5129L30.1399 7.51289L28.7561 8.95687L28.7561 8.95688L30.1399 7.5129ZM31.3784 9.48228C31.3547 9.00753 31.1468 8.64196 30.9264 8.35635C30.7235 8.09335 30.4404 7.813 30.1551 7.52779L28.7409 8.942C29.064 9.26503 29.2371 9.44087 29.343 9.57819C29.4316 9.69292 29.3853 9.67183 29.3808 9.58191L31.3784 9.48228ZM30.3557 11.5488C30.6111 11.2366 30.8649 10.9295 31.0407 10.6476C31.2316 10.3415 31.402 9.95704 31.3784 9.48228L29.3808 9.58191C29.3764 9.49199 29.4203 9.46641 29.3436 9.58937C29.2518 9.73657 29.0971 9.92876 28.8078 10.2823L30.3557 11.5488ZM29.8861 12.1228L30.3557 11.5488L28.8078 10.2823L28.3381 10.8563L29.8861 12.1228ZM28.7056 13.5656C28.7776 13.7395 28.646 13.8081 28.8295 13.5013C29.0137 13.1932 29.3448 12.7844 29.8861 12.1228L28.3381 10.8563C27.8399 11.4653 27.3913 12.0094 27.113 12.4748C26.8339 12.9415 26.5568 13.6042 26.8578 14.3309L28.7056 13.5656ZM30.5605 13.7511C29.7099 13.666 29.1867 13.611 28.8386 13.5234C28.492 13.4362 28.6336 13.3917 28.7056 13.5656L26.8578 14.3309C27.1589 15.0576 27.8233 15.3303 28.3507 15.463C28.8766 15.5953 29.5785 15.6628 30.3615 15.7411L30.5605 13.7511ZM31.2985 13.8249L30.5605 13.7511L30.3615 15.7411L31.0995 15.8149L31.2985 13.8249ZM33.4829 14.563C33.1639 14.2105 32.7716 14.0592 32.4201 13.9778C32.0965 13.9027 31.6999 13.865 31.2985 13.8249L31.0995 15.8149C31.5541 15.8604 31.7994 15.8869 31.9684 15.9261C32.1095 15.9588 32.0604 15.9717 32 15.905L33.4829 14.563ZM34 16.81C34 16.4066 34.0019 16.0082 33.9595 15.6787C33.9134 15.3209 33.8019 14.9154 33.4829 14.563L32 15.905C31.9396 15.8382 31.9574 15.7906 31.9759 15.9344C31.9981 16.1064 32 16.3531 32 16.81H34ZM34 19.19V16.81H32V19.19H34ZM33.4829 21.437C33.8019 21.0846 33.9134 20.6791 33.9595 20.3213C34.0019 19.9918 34 19.5934 34 19.19H32C32 19.6469 31.9981 19.8936 31.9759 20.0656C31.9574 20.2094 31.9396 20.1618 32 20.095L33.4829 21.437ZM31.2985 22.1751C31.6999 22.135 32.0965 22.0973 32.4201 22.0223C32.7716 21.9408 33.164 21.7895 33.4829 21.437L32 20.095C32.0604 20.0283 32.1095 20.0412 31.9684 20.0739C31.7994 20.1131 31.5541 20.1396 31.0995 20.1851L31.2985 22.1751ZM31.199 22.1801H31.199V20.1801H31.199V22.1801ZM30.5611 22.2489L31.2985 22.1751L31.0995 20.1851L30.3621 20.2588L30.5611 22.2489ZM28.7062 22.4344C28.6341 22.6083 28.4925 22.5637 28.8392 22.4765C29.1873 22.3889 29.7105 22.3339 30.5611 22.2489L30.3621 20.2588C29.5791 20.3371 28.8772 20.4046 28.3513 20.5369C27.8239 20.6696 27.1594 20.9423 26.8584 21.669L28.7062 22.4344ZM29.8866 23.8772C29.3453 23.2156 29.0142 22.8067 28.83 22.4986C28.6466 22.1918 28.7782 22.2605 28.7062 22.4344L26.8584 21.669C26.5574 22.3957 26.8344 23.0584 27.1135 23.5251C27.3919 23.9905 27.8404 24.5346 28.3387 25.1436L29.8866 23.8772ZM30.3558 24.4505L29.8866 23.8772L28.3387 25.1436L28.8078 25.717L30.3558 24.4505ZM31.3784 26.5171C31.4021 26.0423 31.2316 25.6579 31.0408 25.3517C30.865 25.0698 30.6112 24.7627 30.3558 24.4505L28.8078 25.717C29.0971 26.0706 29.2519 26.2628 29.3436 26.41C29.4203 26.5329 29.3764 26.5073 29.3809 26.4174L31.3784 26.5171ZM30.1552 28.4716C30.4404 28.1863 30.7235 27.906 30.9265 27.643C31.1469 27.3574 31.3548 26.9918 31.3784 26.5171L29.3809 26.4174C29.3854 26.3275 29.4316 26.3064 29.3431 26.4211C29.2371 26.5585 29.064 26.7343 28.741 27.0573L30.1552 28.4716ZM30.1552 28.4716L30.1552 28.4716L28.741 27.0573L28.741 27.0574L30.1552 28.4716ZM28.4723 30.1545L30.1552 28.4716L28.741 27.0574L27.058 28.7403L28.4723 30.1545ZM26.5177 31.3777C26.9925 31.3541 27.3581 31.1462 27.6437 30.9258C27.9067 30.7228 28.187 30.4397 28.4723 30.1545L27.058 28.7403C26.735 29.0633 26.5592 29.2364 26.4218 29.3424C26.3071 29.4309 26.3282 29.3847 26.4181 29.3802L26.5177 31.3777ZM24.4512 30.3551C24.7634 30.6105 25.0705 30.8643 25.3524 31.0401C25.6585 31.2309 26.043 31.4014 26.5177 31.3777L26.4181 29.3802C26.508 29.3757 26.5336 29.4196 26.4107 29.343C26.2635 29.2512 26.0713 29.0964 25.7177 28.8071L24.4512 30.3551ZM23.8773 29.8855L24.4512 30.3551L25.7177 28.8071L25.1438 28.3376L23.8773 29.8855ZM22.4345 28.705C22.2606 28.777 22.192 28.6454 22.4988 28.8289C22.8068 29.0131 23.2157 29.3442 23.8773 29.8855L25.1438 28.3376C24.5348 27.8393 23.9907 27.3907 23.5252 27.1124C23.0585 26.8333 22.3958 26.5562 21.6691 26.8573L22.4345 28.705ZM22.249 30.5599C22.3341 29.7094 22.3891 29.1861 22.4766 28.838C22.5638 28.4914 22.6084 28.633 22.4345 28.705L21.6691 26.8573C20.9424 27.1583 20.6697 27.8228 20.5371 28.3501C20.4047 28.876 20.3372 29.578 20.2589 30.3609L22.249 30.5599ZM22.1751 31.2985L22.249 30.5599L20.2589 30.3609L20.1851 31.0995L22.1751 31.2985ZM22.1801 31.199V31.199H20.1801V31.199H22.1801ZM21.437 33.4829C21.7895 33.164 21.9408 32.7716 22.0223 32.4201C22.0973 32.0965 22.135 31.6999 22.1751 31.2985L20.1851 31.0995C20.1396 31.5541 20.1131 31.7994 20.0739 31.9684C20.0412 32.1095 20.0283 32.0604 20.095 32L21.437 33.4829ZM19.19 34C19.5934 34 19.9918 34.0019 20.3213 33.9595C20.6791 33.9134 21.0846 33.8019 21.437 33.4829L20.095 32C20.1618 31.9396 20.2094 31.9574 20.0656 31.9759C19.8936 31.9981 19.6469 32 19.19 32V34ZM16.81 34H19.19V32H16.81V34ZM14.563 33.4829C14.9154 33.8019 15.3209 33.9134 15.6787 33.9595C16.0082 34.0019 16.4066 34 16.81 34V32C16.3531 32 16.1064 31.9981 15.9344 31.9759C15.7906 31.9574 15.8382 31.9396 15.905 32L14.563 33.4829ZM13.8249 31.2985C13.865 31.6999 13.9027 32.0965 13.9778 32.4201C14.0592 32.7716 14.2105 33.1639 14.563 33.4829L15.905 32C15.9718 32.0604 15.9588 32.1095 15.9261 31.9684C15.8869 31.7994 15.8604 31.5541 15.8149 31.0995L13.8249 31.2985ZM13.7511 30.5605L13.8249 31.2985L15.8149 31.0995L15.7411 30.3615L13.7511 30.5605ZM13.5656 28.7056C13.3917 28.6336 13.4362 28.492 13.5235 28.8386C13.611 29.1867 13.666 29.7099 13.7511 30.5605L15.7411 30.3615C15.6628 29.5785 15.5953 28.8766 15.463 28.3507C15.3303 27.8233 15.0576 27.1589 14.3309 26.8578L13.5656 28.7056ZM12.1228 29.8861C12.7844 29.3448 13.1932 29.0137 13.5013 28.8295C13.8081 28.646 13.7395 28.7776 13.5656 28.7056L14.3309 26.8578C13.6042 26.5568 12.9416 26.8339 12.4749 27.113C12.0094 27.3913 11.4653 27.8399 10.8563 28.3382L12.1228 29.8861ZM11.5487 30.3557L12.1228 29.8861L10.8563 28.3382L10.2823 28.8078L11.5487 30.3557ZM9.48222 31.3784C9.95698 31.4021 10.3414 31.2316 10.6475 31.0407C10.9294 30.865 11.2366 30.6112 11.5487 30.3557L10.2823 28.8078C9.9287 29.0971 9.7365 29.2519 9.58931 29.3436C9.46634 29.4203 9.49193 29.3764 9.58185 29.3809L9.48222 31.3784ZM7.52771 30.1552C7.81294 30.4404 8.09328 30.7235 8.35629 30.9265C8.6419 31.1469 9.00746 31.3547 9.48222 31.3784L9.58185 29.3809C9.67177 29.3854 9.69286 29.4316 9.57813 29.3431C9.4408 29.2371 9.26496 29.064 8.94193 28.741L7.52771 30.1552ZM5.84476 28.4722L7.52771 30.1552L8.94193 28.741L7.25898 27.058L5.84476 28.4722ZM4.62154 26.5177C4.64522 26.9925 4.8531 27.3581 5.07349 27.6437C5.27645 27.9067 5.55954 28.187 5.84476 28.4722L7.25898 27.058C6.93595 26.735 6.76285 26.5592 6.65688 26.4218C6.56835 26.3071 6.61457 26.3282 6.61905 26.4181L4.62154 26.5177ZM5.64421 24.4512C5.38879 24.7634 5.13499 25.0705 4.95922 25.3524C4.76834 25.6585 4.59786 26.043 4.62154 26.5177L6.61905 26.4181C6.62354 26.508 6.57964 26.5336 6.65632 26.4106C6.7481 26.2635 6.90284 26.0713 7.19213 25.7177L5.64421 24.4512ZM6.11385 23.8772L5.64421 24.4512L7.19213 25.7177L7.66177 25.1437L6.11385 23.8772ZM7.29431 22.4344C7.22229 22.2605 7.35392 22.1919 7.17046 22.4987C6.98625 22.8068 6.65515 23.2156 6.11385 23.8772L7.66177 25.1437C8.16004 24.5347 8.60864 23.9906 8.88697 23.5251C9.16605 23.0584 9.44308 22.3958 9.14207 21.6691L7.29431 22.4344ZM5.4394 22.2489C6.28997 22.334 6.8132 22.389 7.16128 22.4765C7.50795 22.5638 7.36634 22.6083 7.29431 22.4344L9.14207 21.6691C8.84106 20.9424 8.17657 20.6697 7.64923 20.537C7.1233 20.4047 6.42137 20.3372 5.63841 20.2589L5.4394 22.2489ZM4.70149 22.1751L5.4394 22.2489L5.63841 20.2589L4.9005 20.1851L4.70149 22.1751ZM4.80098 22.1801H4.80099V20.1801H4.80098V22.1801ZM2.51709 21.437C2.83605 21.7895 3.22844 21.9408 3.57987 22.0223C3.90349 22.0973 4.30011 22.135 4.70147 22.1751L4.90048 20.1851C4.44592 20.1396 4.2006 20.1131 4.03163 20.0739C3.89046 20.0412 3.93959 20.0283 4 20.095L2.51709 21.437ZM2 19.19C2 19.5934 1.99806 19.9918 2.04052 20.3213C2.08663 20.6791 2.19813 21.0846 2.51709 21.437L4 20.095C4.06041 20.1618 4.04264 20.2094 4.02412 20.0656C4.00194 19.8936 4 19.6469 4 19.19H2ZM2 16.81L2 19.19H4L4 16.81H2ZM2.51709 14.563C2.19813 14.9154 2.08664 15.3209 2.04052 15.6787C1.99806 16.0082 2 16.4066 2 16.81H4C4 16.3531 4.00194 16.1064 4.02412 15.9344C4.04264 15.7906 4.06041 15.8382 4 15.905L2.51709 14.563ZM4.70149 13.8249C4.30013 13.865 3.9035 13.9027 3.57987 13.9777C3.22844 14.0592 2.83606 14.2105 2.5171 14.563L4 15.905C3.93959 15.9717 3.89046 15.9588 4.03163 15.9261C4.20061 15.8869 4.44593 15.8604 4.9005 15.8149L4.70149 13.8249ZM5.43997 13.751L4.70149 13.8249L4.9005 15.8149L5.63898 15.7411L5.43997 13.751ZM7.29488 13.5655C7.36691 13.3916 7.50852 13.4362 7.16185 13.5234C6.81377 13.611 6.29054 13.666 5.43997 13.751L5.63898 15.7411C6.42194 15.6628 7.12387 15.5953 7.6498 15.463C8.17714 15.3303 8.84163 15.0576 9.14264 14.3309L7.29488 13.5655ZM6.11442 12.1227C6.65572 12.7843 6.98681 13.1932 7.17103 13.5012C7.35449 13.808 7.22286 13.7394 7.29488 13.5655L9.14264 14.3309C9.44365 13.6042 9.16662 12.9415 8.88754 12.4748C8.6092 12.0094 8.16061 11.4653 7.66234 10.8563L6.11442 12.1227ZM5.64428 11.5481L6.11442 12.1227L7.66234 10.8563L7.1922 10.2816L5.64428 11.5481ZM4.62161 9.4816C4.59793 9.95636 4.76841 10.3408 4.95929 10.6469C5.13506 10.9288 5.38886 11.2359 5.64428 11.5481L7.1922 10.2816C6.90291 9.92808 6.74817 9.73588 6.65639 9.58869C6.57971 9.46572 6.62361 9.49131 6.61912 9.58123L4.62161 9.4816ZM5.84483 7.52709C5.55961 7.81231 5.27652 8.09266 5.07356 8.35567C4.85317 8.64128 4.64529 9.00684 4.62161 9.4816L6.61912 9.58123C6.61464 9.67115 6.56842 9.69224 6.65695 9.57751C6.76292 9.44018 6.93602 9.26434 7.25905 8.94131L5.84483 7.52709ZM7.52778 5.84414L5.84483 7.52709L7.25905 8.94131L8.942 7.25836L7.52778 5.84414ZM9.48229 4.62092C9.00753 4.6446 8.64197 4.85248 8.35636 5.07287C8.09335 5.27583 7.81301 5.55892 7.52778 5.84414L8.942 7.25836C9.26503 6.93532 9.44087 6.76223 9.5782 6.65626C9.69293 6.56772 9.67184 6.61395 9.58192 6.61843L9.48229 4.62092ZM11.5488 5.64359C11.2366 5.38817 10.9295 5.13437 10.6476 4.9586C10.3415 4.76771 9.95705 4.59724 9.48229 4.62092L9.58192 6.61843C9.492 6.62292 9.46642 6.57902 9.58938 6.6557C9.73658 6.74748 9.92877 6.90222 10.2823 7.19151L11.5488 5.64359ZM12.1229 6.11327L11.5488 5.64359L10.2823 7.19151L10.8564 7.66118L12.1229 6.11327ZM13.5656 7.29373C13.7395 7.2217 13.8082 7.35333 13.5014 7.16987C13.1933 6.98566 12.7845 6.65457 12.1229 6.11327L10.8564 7.66118C11.4654 8.15946 12.0095 8.60805 12.4749 8.88638C12.9416 9.16546 13.6043 9.44249 14.331 9.14149L13.5656 7.29373ZM13.7511 5.43881C13.6661 6.28939 13.6111 6.81261 13.5235 7.1607C13.4363 7.50736 13.3918 7.36575 13.5656 7.29373L14.331 9.14148C15.0577 8.84047 15.3304 8.17599 15.4631 7.64864C15.5954 7.12271 15.6629 6.42078 15.7412 5.63782L13.7511 5.43881ZM13.8249 4.70149L13.7511 5.43881L15.7412 5.63782L15.8149 4.9005L13.8249 4.70149ZM14.563 2.5171C14.2105 2.83606 14.0592 3.22844 13.9778 3.57987C13.9027 3.9035 13.865 4.30012 13.8249 4.70149L15.8149 4.90049C15.8604 4.44593 15.8869 4.20061 15.9261 4.03163C15.9588 3.89046 15.9718 3.93959 15.905 4L14.563 2.5171ZM16.81 2C16.4066 2 16.0082 1.99806 15.6787 2.04052C15.3209 2.08663 14.9154 2.19813 14.563 2.51709L15.905 4C15.8382 4.06041 15.7906 4.04264 15.9344 4.02412C16.1064 4.00194 16.3531 4 16.81 4V2ZM19.19 2H16.81V4H19.19V2ZM21.437 2.51709C21.0846 2.19813 20.6791 2.08663 20.3213 2.04052C19.9918 1.99806 19.5934 2 19.19 2V4C19.6469 4 19.8936 4.00194 20.0656 4.02412C20.2094 4.04264 20.1618 4.06041 20.095 4L21.437 2.51709ZM22.1751 4.70147C22.135 4.30011 22.0973 3.90349 22.0223 3.57987C21.9408 3.22843 21.7895 2.83605 21.437 2.51709L20.095 4C20.0283 3.93959 20.0412 3.89046 20.0739 4.03163C20.1131 4.2006 20.1396 4.44592 20.1851 4.90048L22.1751 4.70147ZM23 18C23 20.7614 20.7614 23 18 23V25C21.866 25 25 21.866 25 18H23ZM18 13C20.7614 13 23 15.2386 23 18H25C25 14.134 21.866 11 18 11V13ZM13 18C13 15.2386 15.2386 13 18 13V11C14.134 11 11 14.134 11 18H13ZM18 23C15.2386 23 13 20.7614 13 18H11C11 21.866 14.134 25 18 25V23Z" fill="#F1EBEB"/>
</svg>
