<svg width="38" height="38" viewBox="0 0 38 38" fill="none" xmlns="http://www.w3.org/2000/svg">
<path d="M3.16669 18.9999L2.38582 18.3752L1.88606 18.9999L2.38582 19.6246L3.16669 18.9999ZM17.4167 19.9999C17.969 19.9999 18.4167 19.5522 18.4167 18.9999C18.4167 18.4476 17.969 17.9999 17.4167 17.9999V19.9999ZM8.71915 10.4586L2.38582 18.3752L3.94756 19.6246L10.2809 11.7079L8.71915 10.4586ZM2.38582 19.6246L8.71915 27.5413L10.2809 26.2919L3.94756 18.3752L2.38582 19.6246ZM3.16669 19.9999H17.4167V17.9999H3.16669V19.9999Z" fill="white"/>
<path d="M15.8333 12.8756V9.72193C15.8333 8.10358 15.8333 7.29441 16.3073 6.73492C16.7812 6.17543 17.5794 6.0424 19.1757 5.77635L27.8469 4.33115C31.09 3.79063 32.7116 3.52037 33.7724 4.41907C34.8333 5.31777 34.8333 6.96168 34.8333 10.2495V27.7507C34.8333 31.0385 34.8333 32.6824 33.7724 33.5811C32.7116 34.4798 31.09 34.2095 27.8469 33.669L19.1757 32.2238C17.5794 31.9578 16.7812 31.8247 16.3073 31.2652C15.8333 30.7058 15.8333 29.8966 15.8333 28.2782V25.4379" stroke="white" stroke-width="2"/>
</svg>
